<svg width="400" height="400" viewBox="0 0 400 400" xmlns="http://www.w3.org/2000/svg">
  <defs>
    <filter id="blur" x="-50%" y="-50%" width="200%" height="200%">
      <feGaussianBlur stdDeviation="16"/>
    </filter>
  </defs>
  <rect width="400" height="400" rx="16" fill="#0d1117"/>
  <rect x="1" y="1" width="398" height="398" rx="15" fill="none" stroke="#1e293b" stroke-width="2"/>
  <ellipse cx="210" cy="215" rx="60" ry="40" fill="#3b82f6" opacity="0.22" filter="url(#blur)"/>
  <g transform="rotate(0 200 250)"><rect x="90" y="250" width="210" height="18" rx="4" fill="none" stroke="#94a3b8" stroke-width="6" opacity="0.5"/><path d="M152,233 L285,250" fill="none" stroke="#94a3b8" stroke-width="12" stroke-linecap="round" stroke-linejoin="round"/><path d="M285,250 L312,290 L298,335" fill="none" stroke="#94a3b8" stroke-width="10" stroke-linecap="round" stroke-linejoin="round"/><path d="M285,250 L318,296 L310,342" fill="none" stroke="#94a3b8" stroke-width="10" stroke-linecap="round" stroke-linejoin="round"/><path d="M155,230 L160,180 L168,135" fill="none" stroke="#94a3b8" stroke-width="10" stroke-linecap="round" stroke-linejoin="round"/><path d="M155,234 L165,184 L180,140" fill="none" stroke="#94a3b8" stroke-width="10" stroke-linecap="round" stroke-linejoin="round"/><circle cx="140" cy="215" r="20" fill="none" stroke="#94a3b8" stroke-width="9"/><circle cx="172" cy="135" r="14" fill="none" stroke="#3b82f6" stroke-width="4"/><circle cx="180" cy="140" r="14" fill="none" stroke="#3b82f6" stroke-width="4"/></g>
  <g transform="translate(344,344)" stroke="#3b82f6" stroke-width="3" fill="none"><line x1="12" y1="20" x2="28" y2="20"/><rect x="6" y="13" width="7" height="14" rx="1"/><rect x="27" y="13" width="7" height="14" rx="1"/></g>
  <text x="20" y="378" font-family="ui-sans-serif, system-ui, sans-serif" font-size="18" font-weight="600" fill="#64748b">Dumbbell Bench Press</text>
</svg>