<svg width="400" height="400" viewBox="0 0 400 400" xmlns="http://www.w3.org/2000/svg">
  <defs>
    <filter id="blur" x="-50%" y="-50%" width="200%" height="200%">
      <feGaussianBlur stdDeviation="16"/>
    </filter>
  </defs>
  <rect width="400" height="400" rx="16" fill="#0d1117"/>
  <rect x="1" y="1" width="398" height="398" rx="15" fill="none" stroke="#1e293b" stroke-width="2"/>
  <ellipse cx="200" cy="190" rx="65" ry="60" fill="#3b82f6" opacity="0.22" filter="url(#blur)"/>
  <path d="M200,125 L200,255" fill="none" stroke="#94a3b8" stroke-width="12" stroke-linecap="round" stroke-linejoin="round"/><path d="M200,255 L185,325 L180,395" fill="none" stroke="#94a3b8" stroke-width="10" stroke-linecap="round" stroke-linejoin="round"/><path d="M200,255 L215,325 L220,395" fill="none" stroke="#94a3b8" stroke-width="10" stroke-linecap="round" stroke-linejoin="round"/><path d="M178,155 L172,225 L192,175" fill="none" stroke="#94a3b8" stroke-width="10" stroke-linecap="round" stroke-linejoin="round"/><path d="M222,155 L228,225 L208,175" fill="none" stroke="#94a3b8" stroke-width="10" stroke-linecap="round" stroke-linejoin="round"/><circle cx="200" cy="95" r="20" fill="none" stroke="#94a3b8" stroke-width="9"/><circle cx="192" cy="175" r="13" fill="none" stroke="#3b82f6" stroke-width="4"/><circle cx="208" cy="175" r="13" fill="none" stroke="#3b82f6" stroke-width="4"/>
  <g transform="translate(344,344)" stroke="#3b82f6" stroke-width="3" fill="none"><rect x="4" y="4" width="20" height="28" rx="2"/><circle cx="30" cy="30" r="6"/></g>
  <text x="20" y="378" font-family="ui-sans-serif, system-ui, sans-serif" font-size="18" font-weight="600" fill="#64748b">Preacher Curl</text>
</svg>