<svg width="400" height="400" viewBox="0 0 400 400" xmlns="http://www.w3.org/2000/svg">
  <defs>
    <filter id="blur" x="-50%" y="-50%" width="200%" height="200%">
      <feGaussianBlur stdDeviation="16"/>
    </filter>
  </defs>
  <rect width="400" height="400" rx="16" fill="#0d1117"/>
  <rect x="1" y="1" width="398" height="398" rx="15" fill="none" stroke="#1e293b" stroke-width="2"/>
  <ellipse cx="210" cy="165" rx="65" ry="60" fill="#3b82f6" opacity="0.22" filter="url(#blur)"/>
  <path d="M210,120 L230,200" fill="none" stroke="#94a3b8" stroke-width="12" stroke-linecap="round" stroke-linejoin="round"/><path d="M230,200 L225,290 L205,365" fill="none" stroke="#94a3b8" stroke-width="10" stroke-linecap="round" stroke-linejoin="round"/><path d="M230,200 L255,295 L255,365" fill="none" stroke="#94a3b8" stroke-width="10" stroke-linecap="round" stroke-linejoin="round"/><path d="M218,140 L192,178 L185,158" fill="none" stroke="#94a3b8" stroke-width="10" stroke-linecap="round" stroke-linejoin="round"/><path d="M218,144 L200,184 L196,162" fill="none" stroke="#94a3b8" stroke-width="10" stroke-linecap="round" stroke-linejoin="round"/><circle cx="195" cy="90" r="20" fill="none" stroke="#94a3b8" stroke-width="9"/><circle cx="190" cy="160" r="13" fill="none" stroke="#3b82f6" stroke-width="4"/>
  <g transform="translate(344,344)" stroke="#3b82f6" stroke-width="3" fill="none"><line x1="12" y1="20" x2="28" y2="20"/><rect x="6" y="13" width="7" height="14" rx="1"/><rect x="27" y="13" width="7" height="14" rx="1"/></g>
  <text x="20" y="378" font-family="ui-sans-serif, system-ui, sans-serif" font-size="18" font-weight="600" fill="#64748b">Single-Arm Dumbbell Row</text>
</svg>