<svg width="400" height="400" viewBox="0 0 400 400" xmlns="http://www.w3.org/2000/svg">
  <defs>
    <filter id="blur" x="-50%" y="-50%" width="200%" height="200%">
      <feGaussianBlur stdDeviation="16"/>
    </filter>
  </defs>
  <rect width="400" height="400" rx="16" fill="#0d1117"/>
  <rect x="1" y="1" width="398" height="398" rx="15" fill="none" stroke="#1e293b" stroke-width="2"/>
  <ellipse cx="200" cy="200" rx="50" ry="50" fill="#3b82f6" opacity="0.22" filter="url(#blur)"/>
  <line x1="160" y1="145" x2="160" y2="305" stroke="#94a3b8" stroke-width="6" /><line x1="240" y1="145" x2="240" y2="305" stroke="#94a3b8" stroke-width="6" /><line x1="160" y1="178" x2="180" y2="178" stroke="#94a3b8" stroke-width="6" /><line x1="220" y1="178" x2="240" y2="178" stroke="#94a3b8" stroke-width="6" /><path d="M200,150 L200,260" fill="none" stroke="#94a3b8" stroke-width="12" stroke-linecap="round" stroke-linejoin="round"/><path d="M200,260 L188,312 L182,362" fill="none" stroke="#94a3b8" stroke-width="10" stroke-linecap="round" stroke-linejoin="round"/><path d="M200,260 L212,312 L222,358" fill="none" stroke="#94a3b8" stroke-width="10" stroke-linecap="round" stroke-linejoin="round"/><path d="M180,162 L163,212 L158,180" fill="none" stroke="#94a3b8" stroke-width="10" stroke-linecap="round" stroke-linejoin="round"/><path d="M220,162 L237,212 L242,180" fill="none" stroke="#94a3b8" stroke-width="10" stroke-linecap="round" stroke-linejoin="round"/><circle cx="200" cy="120" r="20" fill="none" stroke="#94a3b8" stroke-width="9"/>
  <g transform="translate(344,344)" stroke="#3b82f6" stroke-width="3" fill="none"><circle cx="20" cy="8" r="5"/><line x1="20" y1="13" x2="20" y2="26"/><line x1="20" y1="17" x2="12" y2="24"/><line x1="20" y1="17" x2="28" y2="24"/><line x1="20" y1="26" x2="13" y2="36"/><line x1="20" y1="26" x2="27" y2="36"/></g>
  <text x="20" y="378" font-family="ui-sans-serif, system-ui, sans-serif" font-size="18" font-weight="600" fill="#64748b">Triceps Dips</text>
</svg>