<svg width="400" height="400" viewBox="0 0 400 400" xmlns="http://www.w3.org/2000/svg">
  <defs>
    <filter id="blur" x="-50%" y="-50%" width="200%" height="200%">
      <feGaussianBlur stdDeviation="16"/>
    </filter>
  </defs>
  <rect width="400" height="400" rx="16" fill="#0d1117"/>
  <rect x="1" y="1" width="398" height="398" rx="15" fill="none" stroke="#1e293b" stroke-width="2"/>
  <ellipse cx="255" cy="250" rx="60" ry="40" fill="#3b82f6" opacity="0.22" filter="url(#blur)"/>
  <rect x="120" y="250" width="60" height="80" rx="4" fill="none" stroke="#94a3b8" stroke-width="6" opacity="0.5"/><line x1="330" y1="200" x2="330" y2="270" stroke="#3b82f6" stroke-width="6" /><path d="M170,235 L205,270" fill="none" stroke="#94a3b8" stroke-width="12" stroke-linecap="round" stroke-linejoin="round"/><path d="M205,270 L265,260 L325,230" fill="none" stroke="#94a3b8" stroke-width="10" stroke-linecap="round" stroke-linejoin="round"/><path d="M205,270 L270,268 L330,245" fill="none" stroke="#94a3b8" stroke-width="10" stroke-linecap="round" stroke-linejoin="round"/><path d="M170,235 L150,260 L160,285" fill="none" stroke="#94a3b8" stroke-width="10" stroke-linecap="round" stroke-linejoin="round"/><circle cx="150" cy="220" r="20" fill="none" stroke="#94a3b8" stroke-width="9"/>
  <g transform="translate(344,344)" stroke="#3b82f6" stroke-width="3" fill="none"><rect x="4" y="4" width="20" height="28" rx="2"/><circle cx="30" cy="30" r="6"/></g>
  <text x="20" y="378" font-family="ui-sans-serif, system-ui, sans-serif" font-size="18" font-weight="600" fill="#64748b">Leg Press</text>
</svg>