<svg width="400" height="400" viewBox="0 0 400 400" xmlns="http://www.w3.org/2000/svg">
  <defs>
    <filter id="blur" x="-50%" y="-50%" width="200%" height="200%">
      <feGaussianBlur stdDeviation="16"/>
    </filter>
  </defs>
  <rect width="400" height="400" rx="16" fill="#0d1117"/>
  <rect x="1" y="1" width="398" height="398" rx="15" fill="none" stroke="#1e293b" stroke-width="2"/>
  <ellipse cx="220" cy="265" rx="55" ry="40" fill="#3b82f6" opacity="0.22" filter="url(#blur)"/>
  <rect x="160" y="230" width="80" height="30" rx="4" fill="none" stroke="#94a3b8" stroke-width="6" opacity="0.5"/><path d="M200,195 L200,245" fill="none" stroke="#94a3b8" stroke-width="12" stroke-linecap="round" stroke-linejoin="round"/><path d="M200,245 L200,290 L260,270" fill="none" stroke="#94a3b8" stroke-width="10" stroke-linecap="round" stroke-linejoin="round"/><path d="M200,200 L175,230 L170,260" fill="none" stroke="#94a3b8" stroke-width="10" stroke-linecap="round" stroke-linejoin="round"/><path d="M200,200 L225,230 L230,260" fill="none" stroke="#94a3b8" stroke-width="10" stroke-linecap="round" stroke-linejoin="round"/><circle cx="200" cy="170" r="20" fill="none" stroke="#94a3b8" stroke-width="9"/><line x1="255" y1="245" x2="255" y2="295" stroke="#3b82f6" stroke-width="6" />
  <g transform="translate(344,344)" stroke="#3b82f6" stroke-width="3" fill="none"><rect x="4" y="4" width="20" height="28" rx="2"/><circle cx="30" cy="30" r="6"/></g>
  <text x="20" y="378" font-family="ui-sans-serif, system-ui, sans-serif" font-size="18" font-weight="600" fill="#64748b">Leg Extension</text>
</svg>