<svg width="400" height="400" viewBox="0 0 400 400" xmlns="http://www.w3.org/2000/svg">
  <defs>
    <filter id="blur" x="-50%" y="-50%" width="200%" height="200%">
      <feGaussianBlur stdDeviation="16"/>
    </filter>
  </defs>
  <rect width="400" height="400" rx="16" fill="#0d1117"/>
  <rect x="1" y="1" width="398" height="398" rx="15" fill="none" stroke="#1e293b" stroke-width="2"/>
  <ellipse cx="200" cy="295" rx="58" ry="55" fill="#3b82f6" opacity="0.22" filter="url(#blur)"/>
  <line x1="170" y1="115" x2="230" y2="115" stroke="#3b82f6" stroke-width="6" /><rect x="158" y="101" width="14" height="28" rx="4" fill="none" stroke="#3b82f6" stroke-width="4" opacity="1"/><rect x="228" y="101" width="14" height="28" rx="4" fill="none" stroke="#3b82f6" stroke-width="4" opacity="1"/><path d="M215,95 L225,215" fill="none" stroke="#94a3b8" stroke-width="12" stroke-linecap="round" stroke-linejoin="round"/><path d="M225,215 L185,260 L170,340" fill="none" stroke="#94a3b8" stroke-width="10" stroke-linecap="round" stroke-linejoin="round"/><path d="M225,215 L255,270 L250,340" fill="none" stroke="#94a3b8" stroke-width="10" stroke-linecap="round" stroke-linejoin="round"/><path d="M190,122 L180,115" fill="none" stroke="#94a3b8" stroke-width="10" stroke-linecap="round" stroke-linejoin="round"/><path d="M210,122 L220,115" fill="none" stroke="#94a3b8" stroke-width="10" stroke-linecap="round" stroke-linejoin="round"/><circle cx="215" cy="95" r="20" fill="none" stroke="#94a3b8" stroke-width="9"/>
  <g transform="translate(344,344)" stroke="#3b82f6" stroke-width="3" fill="none"><rect x="4" y="4" width="20" height="28" rx="2"/><circle cx="30" cy="30" r="6"/></g>
  <text x="20" y="378" font-family="ui-sans-serif, system-ui, sans-serif" font-size="18" font-weight="600" fill="#64748b">Sissy Squat</text>
</svg>