<svg width="400" height="400" viewBox="0 0 400 400" xmlns="http://www.w3.org/2000/svg">
  <defs>
    <filter id="blur" x="-50%" y="-50%" width="200%" height="200%">
      <feGaussianBlur stdDeviation="16"/>
    </filter>
  </defs>
  <rect width="400" height="400" rx="16" fill="#0d1117"/>
  <rect x="1" y="1" width="398" height="398" rx="15" fill="none" stroke="#1e293b" stroke-width="2"/>
  <ellipse cx="240" cy="265" rx="50" ry="40" fill="#3b82f6" opacity="0.22" filter="url(#blur)"/>
  <line x1="50" y1="320" x2="340" y2="320" stroke="#94a3b8" stroke-width="4" /><path d="M135,300 L240,260" fill="none" stroke="#94a3b8" stroke-width="12" stroke-linecap="round" stroke-linejoin="round"/><path d="M240,260 L290,310 L280,320" fill="none" stroke="#94a3b8" stroke-width="10" stroke-linecap="round" stroke-linejoin="round"/><path d="M240,260 L285,315 L275,325" fill="none" stroke="#94a3b8" stroke-width="10" stroke-linecap="round" stroke-linejoin="round"/><path d="M135,300 L110,320" fill="none" stroke="#94a3b8" stroke-width="10" stroke-linecap="round" stroke-linejoin="round"/><circle cx="110" cy="295" r="20" fill="none" stroke="#94a3b8" stroke-width="9"/><line x1="225" y1="255" x2="255" y2="255" stroke="#3b82f6" stroke-width="6" /><rect x="214" y="241" width="14" height="28" rx="4" fill="none" stroke="#3b82f6" stroke-width="4" opacity="1"/><rect x="254" y="241" width="14" height="28" rx="4" fill="none" stroke="#3b82f6" stroke-width="4" opacity="1"/>
  <g transform="translate(344,344)" stroke="#3b82f6" stroke-width="3" fill="none"><line x1="6" y1="20" x2="34" y2="20"/><rect x="1" y="13" width="7" height="14" rx="1"/><rect x="32" y="13" width="7" height="14" rx="1"/></g>
  <text x="20" y="378" font-family="ui-sans-serif, system-ui, sans-serif" font-size="18" font-weight="600" fill="#64748b">Hip Thrusts</text>
</svg>