<svg width="400" height="400" viewBox="0 0 400 400" xmlns="http://www.w3.org/2000/svg">
  <defs>
    <filter id="blur" x="-50%" y="-50%" width="200%" height="200%">
      <feGaussianBlur stdDeviation="16"/>
    </filter>
  </defs>
  <rect width="400" height="400" rx="16" fill="#0d1117"/>
  <rect x="1" y="1" width="398" height="398" rx="15" fill="none" stroke="#1e293b" stroke-width="2"/>
  <ellipse cx="185" cy="270" rx="55" ry="60" fill="#3b82f6" opacity="0.22" filter="url(#blur)"/>
  <rect x="265" y="350" width="50" height="20" rx="4" fill="none" stroke="#94a3b8" stroke-width="5" opacity="0.5"/><path d="M195,110 L200,220" fill="none" stroke="#94a3b8" stroke-width="12" stroke-linecap="round" stroke-linejoin="round"/><path d="M200,220 L170,290 L160,360" fill="none" stroke="#94a3b8" stroke-width="10" stroke-linecap="round" stroke-linejoin="round"/><path d="M200,220 L250,290 L290,355" fill="none" stroke="#94a3b8" stroke-width="10" stroke-linecap="round" stroke-linejoin="round"/><path d="M185,130 L185,210" fill="none" stroke="#94a3b8" stroke-width="10" stroke-linecap="round" stroke-linejoin="round"/><path d="M215,130 L215,210" fill="none" stroke="#94a3b8" stroke-width="10" stroke-linecap="round" stroke-linejoin="round"/><circle cx="190" cy="80" r="20" fill="none" stroke="#94a3b8" stroke-width="9"/><circle cx="185" cy="210" r="13" fill="none" stroke="#3b82f6" stroke-width="4"/><circle cx="215" cy="210" r="13" fill="none" stroke="#3b82f6" stroke-width="4"/>
  <g transform="translate(344,344)" stroke="#3b82f6" stroke-width="3" fill="none"><line x1="12" y1="20" x2="28" y2="20"/><rect x="6" y="13" width="7" height="14" rx="1"/><rect x="27" y="13" width="7" height="14" rx="1"/></g>
  <text x="20" y="378" font-family="ui-sans-serif, system-ui, sans-serif" font-size="18" font-weight="600" fill="#64748b">Bulgarian Split Squat</text>
</svg>