<svg width="400" height="400" viewBox="0 0 400 400" xmlns="http://www.w3.org/2000/svg">
  <defs>
    <filter id="blur" x="-50%" y="-50%" width="200%" height="200%">
      <feGaussianBlur stdDeviation="16"/>
    </filter>
  </defs>
  <rect width="400" height="400" rx="16" fill="#0d1117"/>
  <rect x="1" y="1" width="398" height="398" rx="15" fill="none" stroke="#1e293b" stroke-width="2"/>
  <ellipse cx="195" cy="220" rx="65" ry="45" fill="#3b82f6" opacity="0.22" filter="url(#blur)"/>
  <rect x="90" y="250" width="210" height="18" rx="4" fill="none" stroke="#94a3b8" stroke-width="6" opacity="0.5"/><path d="M152,233 L285,250" fill="none" stroke="#94a3b8" stroke-width="12" stroke-linecap="round" stroke-linejoin="round"/><path d="M285,250 L312,290 L298,335" fill="none" stroke="#94a3b8" stroke-width="10" stroke-linecap="round" stroke-linejoin="round"/><path d="M285,250 L318,296 L310,342" fill="none" stroke="#94a3b8" stroke-width="10" stroke-linecap="round" stroke-linejoin="round"/><path d="M155,230 L125,195 L110,150" fill="none" stroke="#94a3b8" stroke-width="10" stroke-linecap="round" stroke-linejoin="round"/><path d="M155,234 L195,195 L210,150" fill="none" stroke="#94a3b8" stroke-width="10" stroke-linecap="round" stroke-linejoin="round"/><circle cx="140" cy="215" r="20" fill="none" stroke="#94a3b8" stroke-width="9"/><line x1="110" y1="150" x2="70" y2="30" stroke="#3b82f6" stroke-width="3" stroke-dasharray="6,6"/><rect x="60" y="14" width="24" height="10" rx="4" fill="none" stroke="#3b82f6" stroke-width="3" opacity="1"/><line x1="210" y1="150" x2="250" y2="30" stroke="#3b82f6" stroke-width="3" stroke-dasharray="6,6"/><rect x="238" y="14" width="24" height="10" rx="4" fill="none" stroke="#3b82f6" stroke-width="3" opacity="1"/>
  <g transform="translate(344,344)" stroke="#3b82f6" stroke-width="3" fill="none"><rect x="14" y="2" width="12" height="6" rx="1"/><line x1="20" y1="8" x2="20" y2="34"/></g>
  <text x="20" y="378" font-family="ui-sans-serif, system-ui, sans-serif" font-size="18" font-weight="600" fill="#64748b">Cable Crossover</text>
</svg>