<svg width="400" height="400" viewBox="0 0 400 400" xmlns="http://www.w3.org/2000/svg">
  <defs>
    <filter id="blur" x="-50%" y="-50%" width="200%" height="200%">
      <feGaussianBlur stdDeviation="16"/>
    </filter>
  </defs>
  <rect width="400" height="400" rx="16" fill="#0d1117"/>
  <rect x="1" y="1" width="398" height="398" rx="15" fill="none" stroke="#1e293b" stroke-width="2"/>
  <ellipse cx="215" cy="220" rx="58" ry="65" fill="#3b82f6" opacity="0.22" filter="url(#blur)"/>
  <path d="M200,120 L220,210" fill="none" stroke="#94a3b8" stroke-width="12" stroke-linecap="round" stroke-linejoin="round"/><path d="M220,210 L210,290 L200,370" fill="none" stroke="#94a3b8" stroke-width="10" stroke-linecap="round" stroke-linejoin="round"/><path d="M220,210 L225,290 L225,370" fill="none" stroke="#94a3b8" stroke-width="10" stroke-linecap="round" stroke-linejoin="round"/><path d="M210,140 L195,200 L180,260" fill="none" stroke="#94a3b8" stroke-width="10" stroke-linecap="round" stroke-linejoin="round"/><path d="M210,145 L200,205 L185,265" fill="none" stroke="#94a3b8" stroke-width="10" stroke-linecap="round" stroke-linejoin="round"/><circle cx="190" cy="90" r="20" fill="none" stroke="#94a3b8" stroke-width="9"/><g transform="translate(168,262)" stroke="#3b82f6" stroke-width="3" fill="none"><circle cx="20" cy="24" r="14"/><path d="M10,12 a10,10 0 0 1 20,0"/></g>
  <g transform="translate(344,344)" stroke="#3b82f6" stroke-width="3" fill="none"><circle cx="20" cy="24" r="12"/><path d="M12,14 a8,8 0 0 1 16,0"/></g>
  <text x="20" y="378" font-family="ui-sans-serif, system-ui, sans-serif" font-size="18" font-weight="600" fill="#64748b">Kettlebell Swings</text>
</svg>