<svg width="400" height="400" viewBox="0 0 400 400" xmlns="http://www.w3.org/2000/svg">
  <defs>
    <filter id="blur" x="-50%" y="-50%" width="200%" height="200%">
      <feGaussianBlur stdDeviation="16"/>
    </filter>
  </defs>
  <rect width="400" height="400" rx="16" fill="#0d1117"/>
  <rect x="1" y="1" width="398" height="398" rx="15" fill="none" stroke="#1e293b" stroke-width="2"/>
  <ellipse cx="200" cy="120" rx="60" ry="40" fill="#3b82f6" opacity="0.22" filter="url(#blur)"/>
  <path d="M200,100 L200,230" fill="none" stroke="#94a3b8" stroke-width="12" stroke-linecap="round" stroke-linejoin="round"/><path d="M200,230 L185,300 L180,370" fill="none" stroke="#94a3b8" stroke-width="10" stroke-linecap="round" stroke-linejoin="round"/><path d="M200,230 L215,300 L220,370" fill="none" stroke="#94a3b8" stroke-width="10" stroke-linecap="round" stroke-linejoin="round"/><path d="M178,122 L142,112 L120,92" fill="none" stroke="#94a3b8" stroke-width="10" stroke-linecap="round" stroke-linejoin="round"/><path d="M222,122 L258,112 L280,92" fill="none" stroke="#94a3b8" stroke-width="10" stroke-linecap="round" stroke-linejoin="round"/><circle cx="200" cy="70" r="20" fill="none" stroke="#94a3b8" stroke-width="9"/><line x1="120" y1="92" x2="200" y2="22" stroke="#3b82f6" stroke-width="3" stroke-dasharray="6,6"/><line x1="280" y1="92" x2="200" y2="22" stroke="#3b82f6" stroke-width="3" stroke-dasharray="6,6"/><rect x="176" y="8" width="48" height="12" rx="4" fill="none" stroke="#3b82f6" stroke-width="3" opacity="1"/>
  <g transform="translate(344,344)" stroke="#3b82f6" stroke-width="3" fill="none"><rect x="14" y="2" width="12" height="6" rx="1"/><line x1="20" y1="8" x2="20" y2="34"/></g>
  <text x="20" y="378" font-family="ui-sans-serif, system-ui, sans-serif" font-size="18" font-weight="600" fill="#64748b">Face Pulls</text>
</svg>