<svg width="400" height="400" viewBox="0 0 400 400" xmlns="http://www.w3.org/2000/svg">
  <defs>
    <filter id="blur" x="-50%" y="-50%" width="200%" height="200%">
      <feGaussianBlur stdDeviation="16"/>
    </filter>
  </defs>
  <rect width="400" height="400" rx="16" fill="#0d1117"/>
  <rect x="1" y="1" width="398" height="398" rx="15" fill="none" stroke="#1e293b" stroke-width="2"/>
  <ellipse cx="200" cy="115" rx="58" ry="40" fill="#3b82f6" opacity="0.22" filter="url(#blur)"/>
  <path d="M200,100 L200,230" fill="none" stroke="#94a3b8" stroke-width="12" stroke-linecap="round" stroke-linejoin="round"/><path d="M200,230 L185,300 L180,370" fill="none" stroke="#94a3b8" stroke-width="10" stroke-linecap="round" stroke-linejoin="round"/><path d="M200,230 L215,300 L220,370" fill="none" stroke="#94a3b8" stroke-width="10" stroke-linecap="round" stroke-linejoin="round"/><path d="M180,130 L186,172 L196,112" fill="none" stroke="#94a3b8" stroke-width="10" stroke-linecap="round" stroke-linejoin="round"/><path d="M220,130 L214,172 L204,112" fill="none" stroke="#94a3b8" stroke-width="10" stroke-linecap="round" stroke-linejoin="round"/><circle cx="200" cy="70" r="20" fill="none" stroke="#94a3b8" stroke-width="9"/><line x1="170" y1="110" x2="230" y2="110" stroke="#3b82f6" stroke-width="6" /><rect x="160" y="96" width="14" height="28" rx="4" fill="none" stroke="#3b82f6" stroke-width="4" opacity="1"/><rect x="226" y="96" width="14" height="28" rx="4" fill="none" stroke="#3b82f6" stroke-width="4" opacity="1"/>
  <g transform="translate(344,344)" stroke="#3b82f6" stroke-width="3" fill="none"><line x1="6" y1="20" x2="34" y2="20"/><rect x="1" y="13" width="7" height="14" rx="1"/><rect x="32" y="13" width="7" height="14" rx="1"/></g>
  <text x="20" y="378" font-family="ui-sans-serif, system-ui, sans-serif" font-size="18" font-weight="600" fill="#64748b">Barbell High Pull</text>
</svg>