<svg id="Layer_1" data-name="Layer 1" xmlns="http://www.w3.org/2000/svg" viewBox="0 0 513.65 500"><g id="shoulders"><path d="M408.53,115.63a1.91,1.91,0,0,0,1,1.87,41.79,41.79,0,0,1,5.17,3.85c3,2.85,5.76,6,8.86,8.8a20.3,20.3,0,0,0,14.55,5.16l3-.35a1,1,0,0,0,1-1.23c-.25-2.22-.39-4.46-.78-6.65-.84-4.69-2.38-9.11-5.72-12.66A36.69,36.69,0,0,0,420.14,105a5.08,5.08,0,0,0-2.68-.11C413.12,105.86,408.82,111.14,408.53,115.63Zm-89,19.34,3,.35a20.3,20.3,0,0,0,14.55-5.16c3.1-2.77,5.83-6,8.86-8.8a40.81,40.81,0,0,1,5.17-3.85,1.9,1.9,0,0,0,1-1.87c-.29-4.49-4.6-9.77-8.92-10.77a5.08,5.08,0,0,0-2.68.11,36.63,36.63,0,0,0-15.44,9.46c-3.34,3.55-4.88,8-5.72,12.66-.39,2.19-.53,4.43-.78,6.65A1,1,0,0,0,319.55,135Z" fill="#cbd5e1" stroke="#231f20" stroke-miterlimit="10" stroke-width="0.75"/><path d="M55.88,133.07c1.56-1,4-2.09,5.67-2.92,1.93-1,7.38-1.84,9.36-2.72,3.84-1.72,4-.57,6.32-4.59,3-5.3,7.13-12,8.47-17.88a2.39,2.39,0,0,0-.83-2.53,40,40,0,0,0-4.28-3,3.47,3.47,0,0,0-2.1-.17c-6,.93-9.62,1.71-14.18,5.14-2.78,2.09-6.88,6.7-8.14,10-2.3,6-1.76,13.06-2,19.41a3,3,0,0,0,.17.69C54.73,134.08,55.59,133.26,55.88,133.07Zm90.37-28.13c1.34,5.89,5.44,12.58,8.47,17.88,2.3,4,2.47,2.88,6.32,4.59,2,.88,7.43,1.75,9.36,2.72,1.65.83,4.11,1.9,5.67,2.92.3.19,1.16,1,1.53,1.34a3,3,0,0,0,.17-.69c-.23-6.35.31-13.43-2-19.41-1.25-3.26-5.36-7.86-8.14-10-4.56-3.43-8.14-4.21-14.18-5.14a3.46,3.46,0,0,0-2.1.17,38.59,38.59,0,0,0-4.28,3A2.42,2.42,0,0,0,146.25,104.94Z" fill="#cbd5e1" stroke="#231f20" stroke-miterlimit="10" stroke-width="0.75"/></g><g id="traps"><path d="M388.28,100.71l5.4-1.3h0c3.35.11,6.72.08,10.07.13a4.91,4.91,0,0,0,.79-.19l-1-.62c-2-1.22-4.12-2.4-6.14-3.66a8.18,8.18,0,0,1-3.93-7c-.12-2.61-.39-5.21-.49-7.82a23.37,23.37,0,0,0-3.24-10.89,6.32,6.32,0,0,0-.66-.81l-.38.13q.66,7.69,1.32,15.42a8.26,8.26,0,0,1-.24-1c-.68-5-1.32-9.9-2-14.84a2.34,2.34,0,0,0-.9-1.52,11.6,11.6,0,0,0-11.5-.35A2.59,2.59,0,0,0,373.74,69a79.19,79.19,0,0,1-2.48,16.48c-.15.56-.41,1.1-.61,1.65,1.34-7.87,2.2-17.25,1.46-18.64a12.68,12.68,0,0,0-.89,1.19,19.46,19.46,0,0,0-2.69,8.14c-.33,3.69-.52,7.4-.91,11.09a7.82,7.82,0,0,1-3.38,6.16c-1.91,1.22-3.88,2.36-5.82,3.52-.34.21-.7.38-1.28.69a4.54,4.54,0,0,0,.86.24c3.57,0,7.13-.1,10.7-.18h0l4.68,1.4c4.78,3.76,6.72,8.78,7.28,14.75.84-3,1.41-5.69,2.34-8.22S385.9,102.65,388.28,100.71Z" fill="#cbd5e1" stroke="#231f20" stroke-miterlimit="10" stroke-width="0.75"/><path d="M105,80.78a29.08,29.08,0,0,1-3.07-1.43l-.84,2.46c-.18,2.12-.4,4.25-.49,6.38a3.86,3.86,0,0,0,.52,1.91,40.8,40.8,0,0,0,6.66,9.14,31.64,31.64,0,0,0,4.8,3.81c1,.67,1.47.36,1.51-.81a27.89,27.89,0,0,0-.11-4.48,47.09,47.09,0,0,0-3.34-11.27A8.7,8.7,0,0,0,105,80.78Zm12,21.46c0,1.11.43,1.36,1.32.85a13.84,13.84,0,0,0,3.49-2.39c2.24-2.45,4.34-5,6.37-7.67,1.52-2,2.73-4.11,2.31-6.81-.25-1.6-.36-3.22-.55-5l-1-1.56a32,32,0,0,0-4.82,2.12A5.33,5.33,0,0,0,122,83.47a42.27,42.27,0,0,0-4.61,12.73A37,37,0,0,0,117,102.24Zm-6.35-17.85a43.76,43.76,0,0,1,3.89,13.86,2.79,2.79,0,0,0,.29,1.07,3.21,3.21,0,0,0,.65.68c.22-.23.55-.42.65-.7a5.68,5.68,0,0,0,.34-1.52,41.07,41.07,0,0,1,3.3-12.06c.31-.74.59-1.49.88-2.23H110.36C110.47,83.78,110.55,84.1,110.67,84.39Zm20.2,7c-1.45,3.33-3.92,5.9-6.31,8.53-1.24,1.35-2.54,2.64-3.79,4a2.16,2.16,0,0,0-.26.79c.27.08.55.26.8.22.7-.1,1.39-.28,2.08-.45,3.12-.79,6.24-1.58,9.34-2.4,1.46-.39,2.94-.76,4.39-1.19h.06c2-.55,5.29.83,7.06,2,1-2.51,5.76-4,5.76-4l-4.81-2.11c-1.08-.46-1.95-.8-2.78-1.19q-4.89-2.27-9.76-4.57C131.92,90.57,131.26,90.45,130.87,91.34ZM86.3,102.76c1.77-1.12,5.1-2.5,7.06-2h.06c1.45.43,2.93.8,4.39,1.19,3.11.83,6.23,1.61,9.34,2.4.69.17,1.38.35,2.08.45.25,0,.53-.14.8-.22-.08-.27-.09-.61-.26-.79-1.25-1.35-2.55-2.63-3.79-4-2.39-2.62-4.86-5.2-6.31-8.53-.39-.89-1.06-.76-1.78-.42q-4.87,2.3-9.76,4.57c-.84.39-1.7.73-2.78,1.19l-4.81,2.11S85.31,100.25,86.3,102.76Z" fill="#cbd5e1" stroke="#231f20" stroke-miterlimit="10" stroke-width="0.75"/></g><g id="back"><path d="M376.69,106.84c-1.26-3-3.21-5.33-6.78-5.87a40.37,40.37,0,0,0-13.11-.27c-3.55.63-7,1.7-10.53,2.58v.49c5.16,1.54,7.21,5.6,8.43,10.3.47,1.79.8,3.62,1.2,5.43.86,3.81,1.69,7.68,3.87,11,3.53,5.34,7.19,10.59,10.92,15.78,3.35,4.65,6.81,9.21,8.54,14.78.36,1.17.59,2.37,1,3.84.1-1.94.27-3.59.26-5.24-.11-12.46-.29-24.92-.36-37.39A40.42,40.42,0,0,0,376.69,106.84Zm17.59-6.19C391,101,388.2,102,386.52,105a30.6,30.6,0,0,0-3.73,11.27c-.66,6-.82,12-.91,18-.14,8.64-.05,17.28,0,25.92,0,1.38.13,2.75.2,4.13,1.29-7.13,5.51-12.66,9.64-18.24,2.57-3.47,5.13-6.95,7.62-10.48,2.6-3.7,4.94-7.56,6.05-12,.85-3.42,1.54-6.88,2.44-10.28s2.43-6.47,5.58-8.4A28.74,28.74,0,0,1,416,103.7l0-.33c-2.72-.77-5.42-1.63-8.18-2.28A41,41,0,0,0,394.28,100.65ZM382,224c0,2.84-.11,5.68-.13,8.52a4.2,4.2,0,0,0,.3,1c.33-.21.76-.34,1-.63,1.12-1.66,2.26-3.32,3.26-5.06,3-5.17,4.53-10.89,6.41-16.49,1.3-3.87,2.55-7.79,4.84-11.23,1.3-1.95,2.65-3.89,5.12-4.6,1.72-.49,1.74-.54,1.61-2.34-.48-6.91-2.39-13.42-6.54-19-3.14-4.2-6.89-7.94-10.39-11.86a3.61,3.61,0,0,0-1.12-.75c-.68-.34-1.35-.24-1.6.52-.85,2.62-2,5.21-2.33,7.9a112.5,112.5,0,0,0-.28,11.91c0,7.5,0,15,0,22.5H382C382,210.92,382,217.43,382,224ZM380.31,175c-.14,0-.14-4.28-.49-6.34a36.56,36.56,0,0,0-2.08-6.24c-.45-1.21-1.1-1.41-2.19-.71a6.23,6.23,0,0,0-1.2,1c-1.48,1.62-2.94,3.26-4.4,4.9s-3.19,3.55-4.71,5.38a31.92,31.92,0,0,0-4.7,8.52,37.44,37.44,0,0,0-2.64,12.26,1.25,1.25,0,0,0,1.12,1.51,7.25,7.25,0,0,1,4.1,2.66c3,3.54,4.44,7.8,5.91,12.07s2.8,8.41,4.37,12.55a39.64,39.64,0,0,0,5.74,10.28,3.23,3.23,0,0,0,.88.59,3.09,3.09,0,0,0,.39-1c0-.79-.12-1.59-.12-2.38Q380.32,202.6,380.31,175Zm41.54-34.46-.17-4.36h0a4.93,4.93,0,0,0-.18-.94c-.29-1-.64-2-1-3a26.17,26.17,0,0,0-9.72-12.68c-2-1.38-2.9-1-3.32,1.36a30.46,30.46,0,0,1-3.38,9.95c-1.56,2.67-3.43,5.16-5.17,7.73l-2.51,4.1q-4.23,6.47-8.46,12.93a3.61,3.61,0,0,0,.1,4.44,40.93,40.93,0,0,0,11.74,11.08,10.55,10.55,0,0,0,10.74.27c3.88-1.92,6.31-5.24,8.2-9,2.62-5.16,3.37-10.72,3.41-17.3C422.06,144.2,422,142.39,421.85,140.58ZM373.5,161.12c2-2.5,2.17-3.52.46-6.22-2.58-4.05-5.29-8-7.92-12.05l-2-3.49-.17,0a5.29,5.29,0,0,0-.49-.85c-1.32-1.85-2.72-3.64-3.94-5.56a33.25,33.25,0,0,1-4.63-12.48c-.29-1.68-1.19-2.07-2.67-1.21a14.34,14.34,0,0,0-1.77,1.23A28,28,0,0,0,340.9,135a5.72,5.72,0,0,0-.24,1.23h0l-.19,4.43c-.12,1.74-.21,3.47-.31,5.23.09,1.65.14,3.32.28,5a30.43,30.43,0,0,0,5.84,15.88,14.88,14.88,0,0,0,8.47,5.75c3.41.85,6.42-.33,9.21-2.19A43.91,43.91,0,0,0,373.5,161.12ZM420,162.55l-.34-.09c-.17.35-.32.71-.51,1-1.14,2-2.18,4.08-3.47,6s-2.95,3.7-5.37,4.33a14.91,14.91,0,0,1-9.68-.7c-.28-.12-.58-.18-1.13-.35,3.88,7,5.81,14.41,7.25,22.31a21.15,21.15,0,0,0,1.91-1.32,24.62,24.62,0,0,0,5.52-7.84c3-6.28,4.49-13,5.41-19.85C419.76,164.9,419.87,163.72,420,162.55Zm-57.37,10.3a4.07,4.07,0,0,0-.64.15,15.08,15.08,0,0,1-7,1.29c-2.62-.14-5.22-.62-6.89-2.88s-3.28-4.89-4.87-7.36a9.33,9.33,0,0,1-.63-1.52l-.28.06a2.48,2.48,0,0,0,0,.54c.93,5.67,1.53,11.39,3.43,16.88a39.94,39.94,0,0,0,5.7,11.42,18.9,18.9,0,0,0,2.67,2.77c1.11,1,1.47.8,1.73-.61,0-.11,0-.22.05-.34a69.92,69.92,0,0,1,4.86-16.39C361.36,175.56,362,174.29,362.64,172.85Z" fill="#cbd5e1" stroke="#231f20" stroke-miterlimit="10" stroke-width="0.75"/><path d="M133.73,144.43c1.14,5.73,2.23,11.46,3.56,17.15A12.59,12.59,0,0,0,139.6,166a45.25,45.25,0,0,0,4.4,4.79,18.28,18.28,0,0,1,5.08,8.34c.09.34.24.67.45,1.26a8.4,8.4,0,0,0,1.86-4.91l.75-7.85c.14-.87.31-1.73.42-2.6a97.34,97.34,0,0,0,.44-17.82c-.2-3.21-.47-6.42-.77-9.62-.13-1.4-.58-1.68-1.85-1.21l-14,5.29h0a5.66,5.66,0,0,0-.67.07A2.13,2.13,0,0,0,133.73,144.43Zm-52.71-8-.11,0-.13-.05h0c-1.49-.59-1.8,0-2,2.24a125.14,125.14,0,0,0-.62,19.83c.14,2.64.62,6.23.9,9.13v0l.69,7.21V175a8,8,0,0,0,1.75,5.2,3.13,3.13,0,0,0,.34-.41c.13-.35.24-.71.35-1.06a15.17,15.17,0,0,1,3.48-6.33c1.47-1.54,3-3.08,4.41-4.64a15.56,15.56,0,0,0,4.42-8.53c.11-.78.29-1.54.45-2.31.83-4.07,1.7-8.13,2.47-12.21.35-1.87-.47-2.83-2.36-3H94.8Z" fill="#cbd5e1" stroke="#231f20" stroke-miterlimit="10" stroke-width="0.75"/></g><g id="chest"><path d="M128.41,140.26a22.38,22.38,0,0,0,11.92-1.19,42.37,42.37,0,0,0,13.35-9,2.29,2.29,0,0,0,.66-2.47,23,23,0,0,0-1.56-4.07,120.74,120.74,0,0,1-8-16.29c-1.07-2.83-5.19-6.26-8.36-5.3-4.25,1.3-8.45,2.8-12.62,4.36a9.61,9.61,0,0,0-6.53,8.88,104.91,104.91,0,0,0-.31,11.89C117.18,133.06,122.14,139.26,128.41,140.26Zm-15.3-25a9.6,9.6,0,0,0-6.53-8.88c-4.17-1.55-8.37-3.06-12.62-4.36-3.17-1-7.28,2.47-8.36,5.3a121.94,121.94,0,0,1-8,16.29A21.26,21.26,0,0,0,76,127.64a2.29,2.29,0,0,0,.66,2.47,42.37,42.37,0,0,0,13.35,9,22.48,22.48,0,0,0,11.92,1.19c6.27-1,11.24-7.2,11.49-13.15A102.63,102.63,0,0,0,113.11,115.22Z" fill="#cbd5e1" stroke="#231f20" stroke-miterlimit="10" stroke-width="0.75"/></g><g id="biceps"><path d="M433.58,135.3c-1.26-.26-2.52-.56-4.18-.93a18.08,18.08,0,0,0,.68,1.91c1.41,2.79,3,5.51,4.23,8.36,1.75,4.13,5.32,7,9.17,9.67,2.19,1.53,4.18.92,4.84-1.38a3.82,3.82,0,0,0,.2-1.63,46.71,46.71,0,0,0-1.28-6.73,85.32,85.32,0,0,0-3.24-7.91,1.55,1.55,0,0,0-2-1.06A19.41,19.41,0,0,1,433.58,135.3Zm-116.22,19c3.86-2.69,7.42-5.55,9.17-9.67,1.21-2.85,2.82-5.57,4.23-8.36a18.08,18.08,0,0,0,.68-1.91c-1.66.37-2.92.66-4.18.93a19.41,19.41,0,0,1-8.41.3,1.56,1.56,0,0,0-2,1.06,85.32,85.32,0,0,0-3.24,7.91,44.89,44.89,0,0,0-1.28,6.73,4,4,0,0,0,.2,1.63C313.19,155.23,315.17,155.84,317.36,154.31Z" fill="#cbd5e1" stroke="#231f20" stroke-miterlimit="10" stroke-width="0.75"/><path d="M52.24,181.68c0,.84.18,1.67.3,2.72a4.6,4.6,0,0,0,.42-.5,78.42,78.42,0,0,1,4.2-7A54.45,54.45,0,0,0,65,161.55c1-3.12,2.08-6.25,3-9.4A92.54,92.54,0,0,0,71.63,133c.21-2.62-1.34-3.87-3.82-3-6.78,2.43-13.38,2.54-18.36,13.27-2.15,4.63-2.58,7-2.87,12.06-.15,2.61.65,7.17,2.87,10C52.49,169.11,52.11,176.71,52.24,181.68ZM160.64,133a92.66,92.66,0,0,0,3.62,19.17c1,3.15,2,6.28,3,9.4a54.32,54.32,0,0,0,7.82,15.33,80.85,80.85,0,0,1,4.2,7c.07.11.17.2.42.5.12-1,.28-1.88.3-2.72.12-5-.26-12.57,2.81-16.4,2.22-2.78,3-7.34,2.87-10-.29-5-.72-7.43-2.87-12.06-5-10.72-11.58-10.84-18.36-13.27C162,129.12,160.43,130.36,160.64,133Z" fill="#cbd5e1" stroke="#231f20" stroke-miterlimit="10" stroke-width="0.75"/></g><g id="triceps"><path d="M446.91,156a10.93,10.93,0,0,1-3.61-.94c-1.9-.88-3.65-2-5.7-3.07,0,.46.07.72.07,1a48,48,0,0,1-.08,6,7,7,0,0,1-4.26,5.86.28.28,0,0,0-.12.12,8.47,8.47,0,0,1-1.11,0c-1.18-.11-2.75-1.45-3.62-2.28l-.63-.63,0,0h0c-.59-.58-1.18-1.16-1.74-1.75l-.36.17a3.48,3.48,0,0,0,.21.62c2.31,4.16,4.49,8.37,7,12.47a18.37,18.37,0,0,0,3.93,3.89c.43.36,1.46.35,2.21.52l3.59.27a2.69,2.69,0,0,0,1.39-.21,32,32,0,0,1,4.75-1.4c1.09-.2,1.59-.59,1.68-1.38a56.23,56.23,0,0,0,.69-7.06,27.7,27.7,0,0,0-2.2-10.77A2.08,2.08,0,0,0,446.91,156Zm-134,20.56a32,32,0,0,1,4.75,1.4,2.91,2.91,0,0,0,1.39.21l3.59-.27c.75-.16,1.78-.15,2.21-.52a18.6,18.6,0,0,0,3.93-3.89c2.51-4.1,4.7-8.3,7-12.47a3.23,3.23,0,0,0,.21-.62l-.36-.17c-.56.59-1.16,1.17-1.74,1.75h0l0,0-.63.63c-.87.83-2.44,2.18-3.62,2.28a6.92,6.92,0,0,1-1.11,0,.45.45,0,0,0-.12-.12,7,7,0,0,1-4.26-5.86,50,50,0,0,1-.08-6c0-.26,0-.52.07-1-2,1.12-3.81,2.19-5.7,3.07a10.93,10.93,0,0,1-3.61.94,2.1,2.1,0,0,0-2.08,1.35,27.7,27.7,0,0,0-2.2,10.77,54.42,54.42,0,0,0,.69,7.06C311.29,175.93,311.79,176.31,312.88,176.52Zm122.23-15.6a3.29,3.29,0,0,0,.15-.6c.2-2,.4-3.93.54-5.29-.31-1.89-.55-3.15-.71-4.42-.86-7.05-5.16-12.56-9.47-18.05a2.66,2.66,0,0,0-2-.67c-.37,0-.69.9-.94,1.42a2.29,2.29,0,0,0-.15,1c0,4.29-.07,8.58.11,12.87.25,5.89,3.09,10.8,7.38,15C432.3,164.38,434.15,163.86,435.11,160.92Zm-95.95-26.64a2.29,2.29,0,0,0-.15-1c-.26-.52-.58-1.39-.94-1.42a2.6,2.6,0,0,0-2,.67c-4.31,5.49-8.6,11-9.47,18-.16,1.27-.4,2.53-.71,4.42.14,1.37.33,3.33.54,5.29a3.1,3.1,0,0,0,.15.6c1,3,2.81,3.46,5.08,1.23,4.28-4.21,7.13-9.11,7.38-15C339.23,142.86,339.14,138.57,339.16,134.28Z" fill="#cbd5e1" stroke="#231f20" stroke-miterlimit="10" stroke-width="0.75"/><path d="M64.75,168.73c.56,0,1.18-.87,1.47-1.34.68-1.11,2.38-3.74,2.94-4.91,2.8-5.88,3.7-7.84,4.85-13.78a43.52,43.52,0,0,0,.32-5.81c-.08-.44,0-2.7-.06-3.19-.32-2.94-.89-7.07-1.08-6.7-.51,2.3-2.5,12.81-2.85,14-1.53,5.28-3,10.59-4.44,15.89-.42,1.54-.78,3.09-1.17,4.64C64.85,167.63,64.58,168.74,64.75,168.73Zm102.25,0c.16,0-.1-1.1,0-1.19-.39-1.55-.74-3.1-1.17-4.64-1.46-5.3-2.91-10.61-4.44-15.89-.35-1.21-2.34-11.72-2.85-14-.19-.37-.77,3.77-1.08,6.7-.05.49,0,2.75-.06,3.19a43.61,43.61,0,0,0,.32,5.81c1.15,5.94,2.05,7.9,4.85,13.78.56,1.17,2.26,3.8,2.94,4.91C165.82,167.86,166.44,168.68,167,168.73Z" fill="#cbd5e1" stroke="#231f20" stroke-miterlimit="10" stroke-width="0.75"/></g><g id="forearms"><path d="M451.88,181.34A75.87,75.87,0,0,1,461.65,194a4.4,4.4,0,0,0,.63.67l.35-.2c-.14-8.63-4.59-15.75-9.24-22.81h-.47a5.24,5.24,0,0,0-.55,1.18c-.43,2.07-.8,4.16-1.22,6.24A2.45,2.45,0,0,0,451.88,181.34Zm23.24,54.54c1.11.22,1.33-.28.93-1.38-2.21-6-4.48-12.05-6.59-18.11-1-2.89-1.7-5.89-2.58-8.83a4,4,0,0,0-.67-1,6.3,6.3,0,0,0-.86.94,2.21,2.21,0,0,0-.2,1c-.12,2-.33,4-.32,6,0,3.82.2,7.64.31,11.46h-.41a84.91,84.91,0,0,1-1.13-18.63c.25-6.18-1-11.82-5.07-16.72l-.81-1h0c-.14-.16-.28-.32-.43-.47l-3.1-3.43c-1.36-1-2.58-1.84-3.81-2.69L448,180.9a.81.81,0,0,0-.27-.25l0,0h0a1.92,1.92,0,0,0-1.37,0,11.14,11.14,0,0,0-2.94,1.39,1.83,1.83,0,0,0-.74,2.59,21.63,21.63,0,0,0,1.83,3.16,20.89,20.89,0,0,1,3.38,5.81c2.43,7.64,5,15.25,7.42,22.88.72,2.23,1.41,4.46,2.11,6.69l-.18.06a2.32,2.32,0,0,1-.2-.38c-2.56-7.72-5.08-15.45-7.68-23.16-1.22-3.63-2.3-7.34-4.78-10.45-1.51-1.89-3-3.81-4.51-5.7-1.06-1.32-2.17-2.6-3.29-3.87a1.15,1.15,0,0,0-.89-.39c-.21.05-.44.53-.43.81a16.53,16.53,0,0,0,.33,4.47,46.54,46.54,0,0,0,2.68,5.79,33.74,33.74,0,0,1,2,4,155.54,155.54,0,0,0,9,21.59c3.78,7.46,7.75,14.82,11.6,22.25.49.95,1.07.9,1.91.52C466.83,236.89,470.6,235,475.12,235.88ZM300.07,194a75.46,75.46,0,0,1,9.77-12.61,2.43,2.43,0,0,0,.73-2.29c-.42-2.08-.79-4.16-1.22-6.24a5.72,5.72,0,0,0-.55-1.18h-.47c-4.65,7-9.1,14.17-9.24,22.81l.35.2A5,5,0,0,0,300.07,194Zm26.19-13.9c0-.28-.22-.76-.43-.81a1.15,1.15,0,0,0-.89.39q-1.69,1.91-3.29,3.87c-1.52,1.88-3,3.8-4.51,5.7-2.48,3.11-3.56,6.82-4.78,10.45-2.6,7.71-5.12,15.44-7.68,23.16a2,2,0,0,1-.2.38l-.18-.06c.7-2.23,1.39-4.47,2.11-6.69,2.47-7.63,5-15.24,7.42-22.88a21,21,0,0,1,3.38-5.81,21.63,21.63,0,0,0,1.83-3.16,1.84,1.84,0,0,0-.74-2.59,11.14,11.14,0,0,0-2.94-1.39,2,2,0,0,0-1.37,0h0l0,0a.81.81,0,0,0-.27.25l-2.35,2.21c-1.24.85-2.45,1.72-3.81,2.69l-3.09,3.42c-.43.46-.84,1-1.24,1.44-4.11,4.89-5.32,10.54-5.07,16.72A83.7,83.7,0,0,1,297,226h-.41c.11-3.82.28-7.64.31-11.46,0-2-.19-4-.32-6a2.35,2.35,0,0,0-.2-1,5.85,5.85,0,0,0-.86-.94,3.71,3.71,0,0,0-.67,1c-.87,2.94-1.57,5.93-2.58,8.83-2.11,6.06-4.38,12.08-6.59,18.11-.4,1.1-.19,1.6.93,1.38,4.51-.9,8.28,1,12.11,2.76.84.39,1.42.43,1.91-.52,3.85-7.42,7.82-14.79,11.6-22.25a156.56,156.56,0,0,0,9-21.59,33,33,0,0,1,2-4,45.14,45.14,0,0,0,2.68-5.79A17.84,17.84,0,0,0,326.26,180.05Z" fill="#cbd5e1" stroke="#231f20" stroke-miterlimit="10" stroke-width="0.75"/><path d="M64.36,180.08a11.28,11.28,0,0,0,1-8.39,2.1,2.1,0,0,0-.88-1.29c-.29-.13-1,.27-1.28.62-1.25,1.39-2.41,2.85-3.62,4.27a41.82,41.82,0,0,0-6.85,10.23c-1.87,4.32-3.39,8.8-4.91,13.26A121.2,121.2,0,0,0,41,234a21.89,21.89,0,0,0,.18,2.41l.42.09c.25-.56.5-1.13.73-1.69,3.06-7.45,7.26-14.05,10.29-21.51,2.65-6.52,5.74-14.23,8-20.87C62.17,188.1,62.2,184.18,64.36,180.08ZM29.75,225.51a90.41,90.41,0,0,0,9.62-13.39c6.14-10.29,10.39-21.23,11.32-33.3.25-3.28.33-6.5-1.17-9.56-1-2-1.92-2.16-3.26-.37-5.91,7.89-8.81,16.92-9.56,26.6A82.11,82.11,0,0,1,28.54,225c-.32.66-.72,1.28-1.09,1.91l.34.33A17.76,17.76,0,0,0,29.75,225.51Zm154.13-26.72c-1.52-4.46-3-8.94-4.91-13.26a41.63,41.63,0,0,0-6.85-10.23c-1.21-1.42-2.37-2.88-3.62-4.27-.31-.34-1-.75-1.28-.62a2.07,2.07,0,0,0-.88,1.29,11.33,11.33,0,0,0,1,8.39c2.16,4.1,2.19,8,3.69,12.38,2.3,6.64,5.39,14.35,8,20.87,3,7.46,7.24,14.06,10.29,21.51.23.57.49,1.13.73,1.69l.42-.09a21.71,21.71,0,0,0,.18-2.41A120.45,120.45,0,0,0,183.88,198.79Zm-1.65-29.53c-1.5,3.07-1.42,6.29-1.17,9.56.93,12.07,5.17,23,11.32,33.3A91.35,91.35,0,0,0,202,225.51a17.76,17.76,0,0,0,2,1.69l.34-.33c-.37-.64-.77-1.25-1.09-1.91a82.11,82.11,0,0,1-8.16-29.47c-.76-9.69-3.65-18.71-9.56-26.6C184.15,167.1,183.22,167.23,182.23,169.26Z" fill="#cbd5e1" stroke="#231f20" stroke-miterlimit="10" stroke-width="0.75"/></g><g id="abs"><path d="M358.11,197.14a2.45,2.45,0,0,0-.5-.45h0c-.25-.17-.54-.33-.78-.48a3.94,3.94,0,0,0-1.15-.23,14.07,14.07,0,0,0-10.6,5.87,24,24,0,0,0-3.75,9c-.86,3.47-1.54,7-2.23,10.51a3.47,3.47,0,0,0,.31,1.35c.45-.18,1.07-.23,1.32-.56a24.73,24.73,0,0,0,2.56-3.82c.22-.45.46-.89.69-1.34l3.9-3.89,2.21-1.41a12.81,12.81,0,0,1,2.34-1.11c3-1,6.17-1.72,9.28-2.47,1.3-.31,1.65-.5,1.3-1.76-.56-2-1.26-4-2-6a2.25,2.25,0,0,0-.76-1.13l0-.1Zm-13.36,3.12c.8-.74,1.41-1.66,2.26-2.34,1.39-1.11,2.9-2.08,4.42-3.15-1.51-1.84-3-3.72-4.58-5.57-.64-.76-1.34-.74-1.53,0q-1.24,5.16-2.3,10.35a1.22,1.22,0,0,0,.55,1.09A1.48,1.48,0,0,0,344.75,200.26Zm55.49,7.79c3.11.75,6.25,1.47,9.28,2.47a12.21,12.21,0,0,1,2.34,1.11l2.21,1.41,3.9,3.89c.23.45.47.89.69,1.34a25,25,0,0,0,2.56,3.82c.25.33.87.38,1.32.56a3.66,3.66,0,0,0,.31-1.35c-.7-3.51-1.37-7-2.23-10.51a24.32,24.32,0,0,0-3.75-9,14.07,14.07,0,0,0-10.6-5.87,3.63,3.63,0,0,0-1.15.23l-.78.48h0a2.19,2.19,0,0,0-.5.45l-2.17,1.94,0,.1a2.25,2.25,0,0,0-.76,1.13c-.74,2-1.44,4-2,6C398.59,207.55,398.94,207.74,400.24,208.05ZM415.1,189.2c-1.56,1.84-3.07,3.72-4.58,5.57,1.52,1.07,3,2,4.42,3.15.85.67,1.46,1.6,2.26,2.34.29.27.9.55,1.19.43a1.25,1.25,0,0,0,.55-1.09q-1.06-5.19-2.3-10.35C416.44,188.46,415.74,188.45,415.1,189.2Z" fill="#cbd5e1" stroke="#231f20" stroke-miterlimit="10" stroke-width="0.75"/><path d="M126.06,233.52a4,4,0,0,0-.25,1.12,3.2,3.2,0,0,0,1.16,0,19.19,19.19,0,0,0,3.39-1.7,56.89,56.89,0,0,0,17.84-20.87,23.14,23.14,0,0,0,2.93-9,49.93,49.93,0,0,0-2.1-16.29,11.68,11.68,0,0,0-.72-1.56l-.93,1.71c-2,3.72-4.61,7-8.34,9a5,5,0,0,0-3,5,50.73,50.73,0,0,1-2.33,14.35A88.12,88.12,0,0,1,126.06,233.52ZM98.37,230.8c1.93,1.6,3.88,3.2,6.37,3.88a3.35,3.35,0,0,0,1-.09,3.66,3.66,0,0,0-.2-.94c-1-2-2.16-4-3.12-6.09-4-8.77-7-17.84-7-27.62a3.62,3.62,0,0,0-2.1-3.53c-4-2-6.69-5.33-9-9.06-.36-.59-.66-1.23-1-1.84H83a12.28,12.28,0,0,0-.6,1.63c-.61,3-1.3,5.92-1.72,8.92a23.43,23.43,0,0,0,1.11,12.48A56.59,56.59,0,0,0,98.37,230.8Zm36.54-35a20.74,20.74,0,0,0,4.38-1.91,22.43,22.43,0,0,0,7.89-10.68,6.2,6.2,0,0,0-.75-5.9,39.81,39.81,0,0,0-7.73-8.25,8.57,8.57,0,0,0-1.38-.74c.12.67.17,1.07.27,1.44a42,42,0,0,1,1.4,13.57c-.32,4.42-1.64,8.44-5,11.59a10,10,0,0,0-.7.91A6,6,0,0,0,134.91,195.81ZM97.67,195a15.73,15.73,0,0,1-5-10.05,39.19,39.19,0,0,1,1.22-15.23c.1-.4.14-.82.2-1.23l-.26-.16a7.72,7.72,0,0,0-1.32.91c-2.4,2.5-4.89,4.94-7.12,7.59a6.35,6.35,0,0,0-.77,7.17A37.9,37.9,0,0,0,88,189.64a15,15,0,0,0,7.33,5.87,3.08,3.08,0,0,0,2.8.08A3.89,3.89,0,0,0,97.67,195Zm27.16,38.36c3.58-5.44,5.56-11.5,7-17.77a93.11,93.11,0,0,0,2.38-16.2c.13-2.55-.95-3.75-3.49-3.43a52.49,52.49,0,0,0-11.14,3,2.94,2.94,0,0,0-2.1,2.51c-.32,2.22-.79,4.44-.91,6.67-.31,6.13-.53,18.41-.46,18.41v11.13c0,1.39.16,1.48,1.51,1.07A12.6,12.6,0,0,0,124.83,233.39Zm-10.69-31.45a3.2,3.2,0,0,0-2.54-3c-.72-.19-1.4-.56-2.12-.75-2.93-.75-5.86-1.56-8.82-2.14a2.61,2.61,0,0,0-3.4,2.9A95.06,95.06,0,0,0,100.84,220c1.57,5.38,3.6,10.55,7.12,15,1.85,2.36,4.4,3.31,7.31,4.14,0-.93.12-1.6.12-2.27,0-7.86,0-15.73-.18-23.59C115.1,209.52,114.51,205.73,114.14,201.94Zm2.45-7c0,2.11,1.23,2.94,3.23,2.39,3.28-.91,6.56-1.8,9.88-2.55a4.58,4.58,0,0,0,3.14-2.12,25.52,25.52,0,0,0,3.56-11.24,2,2,0,0,0-1-1.95,23.23,23.23,0,0,0-14.37-3.9c-3.29.13-3.7-.09-4.41,4.1a5.65,5.65,0,0,0-.06,1c0,2.32,0,4.64,0,7h.06C116.59,190,116.57,192.46,116.59,194.9Zm-15-.24c3.49.84,7,1.76,10.42,2.7a2.07,2.07,0,0,0,2.89-2.15c.08-4.34.29-8.67.26-13a28.07,28.07,0,0,0-.78-5.19,1.68,1.68,0,0,0-1.83-1.36,69.08,69.08,0,0,0-6.91.17,21,21,0,0,0-9.34,3.55,2.07,2.07,0,0,0-1.1,2.26,26.16,26.16,0,0,0,3.64,11.08A4.21,4.21,0,0,0,101.54,194.66Zm15-22.85c0,1.56.29,1.81,1.87,1.85,2,.05,4,.06,6,.05a19.24,19.24,0,0,1,10.71,3.19,5.8,5.8,0,0,0,1.19.43,3.75,3.75,0,0,0,.31-1.26c-.36-3.11-.71-6.24-1.24-9.32a4.7,4.7,0,0,0-1.42-2.35A19.8,19.8,0,0,0,121,159c-.64,0-1.27,0-1.91.1-1.77.18-2.18.57-2.46,2.32a6.77,6.77,0,0,0-.09,1C116.52,165.53,116.51,168.67,116.55,171.81Zm-1.76-11.1a1.71,1.71,0,0,0-1.67-1.52c-5.54-.74-10.33,1.06-14.64,4.36a5.88,5.88,0,0,0-2,2.51A28,28,0,0,0,95,176.33a3.74,3.74,0,0,0,.35,1,5,5,0,0,0,1-.36,17.24,17.24,0,0,1,7.65-3c1.86-.21,3.73-.25,5.59-.36a.07.07,0,0,0,0,0h4a1.12,1.12,0,0,0,1.28-1.1A43.62,43.62,0,0,0,114.79,160.71Zm1.76-13c0,2.39,0,4.79,0,7.18a1.61,1.61,0,0,0,1.37,1.68,13,13,0,0,0,1.66.25,34.48,34.48,0,0,1,14.35,4.44c.31.19.65.34,1.31.68a10.41,10.41,0,0,0,0-1.8q-1.41-6.22-2.9-12.44a5.73,5.73,0,0,0-3.24-4.08c-2.24-1-4.53-1.92-6.79-2.88a1.56,1.56,0,0,0-2.06.62q-1.74,2.61-3.39,5.27A2,2,0,0,0,116.55,147.74Zm-1.8-1c-1.11-1.86-2.3-3.67-3.51-5.47a1.47,1.47,0,0,0-1.89-.55c-1.65.61-3.32,1.16-4.94,1.83a8.5,8.5,0,0,0-5.6,6.49c-.7,3.52-1.63,7-2.4,10.5a10.3,10.3,0,0,0,0,2.16,2.49,2.49,0,0,0,.53-.06c.27-.13.53-.27.79-.42a30,30,0,0,1,10.47-3.83c1.7-.27,3.41-.48,5.1-.79,1.4-.26,1.74-.74,1.75-2.15,0-2,0-4.05,0-6.07A3.4,3.4,0,0,0,114.75,146.76Z" fill="#cbd5e1" stroke="#231f20" stroke-miterlimit="10" stroke-width="0.75"/></g><g id="glutes"><path d="M365.12,211.06c-.51-1.83-1.48-2.37-3.66-2.09a22.32,22.32,0,0,0-11.64,5.13c-4.84,4-7.79,9-10,14.37-.62,1.54-.3,2.19,1.46,3a10.25,10.25,0,0,1,5.64,6.06,32.57,32.57,0,0,1,1.88,12.14c-.15,3-.62,6-.94,9-.34,2.09.79,2.88,3.13,2.25A68.89,68.89,0,0,0,367.86,254c4.74-2.8,8.79-6.12,11.22-10.71a5.53,5.53,0,0,0-.61-6.77,75,75,0,0,1-13.36-25.49Zm28.31,43A68.5,68.5,0,0,0,410.26,261c2.33.64,3.47-.16,3.13-2.25-.32-3-.79-6-.94-9a32.77,32.77,0,0,1,1.88-12.14A10.28,10.28,0,0,1,420,231.5c1.76-.84,2.09-1.49,1.46-3-2.17-5.36-5.12-10.36-10-14.37a22.2,22.2,0,0,0-11.6-5.18c-2.18-.28-3.15.27-3.66,2.09-2.56,9.19-7.27,17.62-13.38,25.49a5.53,5.53,0,0,0-.61,6.77c2.42,4.65,6.46,7.92,11.21,10.72Z" fill="#cbd5e1" stroke="#231f20" stroke-miterlimit="10" stroke-width="0.75"/></g><g id="quads"><path d="M348,248c-.12-3.73-.64-7.39-2.88-10.67a8.1,8.1,0,0,0-4.33-3.39c-2.32-.71-3.69-.14-4,2-.59,3.8-1.12,7.61-1.37,11.44-.31,4.74-.51,9.51-.4,14.26.17,7.31.31,14.64,1.06,21.91.92,8.88,2.47,17.71,3.76,26.56.13.9.35,1.79.54,2.69l2,11v.64c-.06,4.49-.59,9-.71,13.46a43.08,43.08,0,0,0,.55,6.71,14.57,14.57,0,0,0,.92,2.8l.39-.05c.11-.2.22-.39.31-.59C345.51,343,347,339,349,335.24a54,54,0,0,0,6.07-23.1c.26-6.35.51-12.7.83-19.05.1-1.94.45-3.86.59-5.79.35-4.9.75-9.8.93-14.7a67.93,67.93,0,0,0-.37-8.44c-.13-1.5-.73-1.86-2.3-1.41-1,.29-2,.62-3,1-1.71.56-5.82,1.64-5.87-.92A52.55,52.55,0,0,0,348,248Zm28.32,6.36a4.51,4.51,0,0,0,0-.52,1.14,1.14,0,0,0-1.23-1,1.11,1.11,0,0,0-.72.34c-1.9,1.9-4.43,2.92-6.95,3.89a10,10,0,0,0-6.69,8.36c-.69,4.28-1.1,8.61-1.52,12.93q-.74,7.68-1.28,15.37c-.31,4.48-.72,9-.67,13.46v1.24h0l-1.81,18h0a6.94,6.94,0,0,0-.28,3.53,24.3,24.3,0,0,0,6.34,11.8,4.88,4.88,0,0,1,1.54,3.52c0,1,.08,1.93.13,2.89l.1,10.25.68.11c.44-.76.84-1.53,1.32-2.28,4.22-9.8,5-15.08,7.19-23.58a124.47,124.47,0,0,0,3.85-21.32c.55-10,.65-23.58,1.23-33.54.08-1.39-1.21-18.65-1.24-20.06Zm22.2,104.18.68-.11.1-10.25c0-1,.15-1.93.13-2.89a4.88,4.88,0,0,1,1.54-3.52,24.22,24.22,0,0,0,6.34-11.8,7.06,7.06,0,0,0-.28-3.53h0l-1.81-18h0v-1.24c0-4.49-.36-9-.67-13.46q-.54-7.69-1.28-15.37c-.42-4.32-.83-8.65-1.52-12.93a10,10,0,0,0-6.69-8.36c-2.52-1-5-2-6.95-3.89a1.14,1.14,0,0,0-1.95.71,2.26,2.26,0,0,0,0,.52v3.32c0,1.41-1.32,18.66-1.24,20.06.58,10,.67,23.57,1.23,33.54a125.09,125.09,0,0,0,3.82,21.38c2.22,8.5,3,13.78,7.19,23.58A19.91,19.91,0,0,1,398.48,358.58Zm12.23-94.8c-1-.36-2-.69-3-1-1.56-.45-2.16-.09-2.3,1.41a67.93,67.93,0,0,0-.37,8.44c.17,4.91.58,9.81.93,14.7.14,1.93.49,3.86.59,5.79.32,6.35.57,12.7.83,19.05a53.82,53.82,0,0,0,6.07,23.1c2,3.75,3.47,7.71,5.18,11.57.09.2.21.39.31.59l.39.05a14.57,14.57,0,0,0,.92-2.8,43.08,43.08,0,0,0,.55-6.71c-.12-4.49-.65-9-.71-13.46v-.64l2-11c.19-.89.41-1.79.54-2.69,1.29-8.85,2.83-17.68,3.76-26.56.76-7.28.9-14.61,1.06-21.91.11-4.75-.09-9.52-.4-14.26-.25-3.83-.78-7.65-1.38-11.44-.33-2.14-1.7-2.72-4-2a8,8,0,0,0-4.33,3.39c-2.24,3.29-2.75,6.94-2.88,10.67a52.07,52.07,0,0,0,2.1,14.78C416.53,265.38,412.42,264.3,410.71,263.78Z" fill="#cbd5e1" stroke="#231f20" stroke-miterlimit="10" stroke-width="0.75"/><path d="M99.92,285.11c-.06.35-.15.71-.19,1.06-.33,3.8-.61,7.61-1,11.41-.29,2.86-.53,5.75-1.09,8.57-1,5-2.19,9.86-3.27,14.79a3.09,3.09,0,0,0,0,1.54c2.22,6.9,2.6,14,2.55,21.19,0,1.36-.08,2.71-.13,4.06h.31a86.46,86.46,0,0,0,6.82-30.11,100.48,100.48,0,0,0-3.53-32.55Zm-2.7-.09a57.75,57.75,0,0,0-1.11-14c-1.63-7.11-3.61-14.15-5.35-21.23-2.34-9.52-4.6-19.07-6.9-28.6a34.82,34.82,0,0,0-1-3.45c-.08-.26-.45-.42-.68-.63a5.5,5.5,0,0,0-.47.81,2.59,2.59,0,0,0-.08.78v8.87c-.08,3.63-.14,7.26-.43,10.88-.31,3.88-.94,7.73-1.3,11.6-.71,7.57-1.43,15.14-2,22.72-.4,5.07-.55,10.16-.45,15.24.26,8.94.92,17.87,1.36,26.8q.33,6.78.5,13.58c.09,3.74,0,7.48.07,11.48a9.13,9.13,0,0,0,.72-.79c2.48-3.65,5-7.26,7.39-11A48.59,48.59,0,0,0,93,317c2.32-7.41,3.1-15.09,3.9-22.76.32-3.08.34-6.17.39-9.24Zm13-43.72c-2.17-1.78-7.88-4.43-10-6.32-5.53-5-8.29-6.6-12.37-12.91-.93-1.44-1.81-2.91-2.71-4.36l-.36.06c.08.72.12,1.45.23,2.16a141.62,141.62,0,0,0,5,20c4.82,15.1,8.71,30.45,12.25,45.89.6,2.62,1.12,5.25,1.68,7.87a1.35,1.35,0,0,0,.47-.87c.46-2.81,2.1-8.35,2.49-11.17a160.72,160.72,0,0,0,3.25-19.53c1-8,1.15-9.44,1.15-14,.07-4.11.12-5.84-1.08-6.82ZM70.4,290.5c0,.26,7.2,28.08,7.28,28.33.24-1.82-1.87-28.77-1.76-36.76.21-11.16,1.59-20.64,2.61-31.75.18-1.94.47-3.87.64-5.81.38-4.21.94-8.43,1-12.65.11-5.42-.16-10.85-.3-16.28,0-2-.24-4-.36-6h-.38c-.07.28-.16.55-.22.83-.67,2.92-1.2,5.88-2,8.75-2.81,9.85-6.25,21.37-7.12,31.49-.57,6.7-2.24,14.74-1.91,20.68.41,7.05,1.37,11.32,2.52,19.17Zm82.75,49.41c0-4,0-7.74.07-11.48q.17-6.8.5-13.58c.44-8.93,1.1-17.86,1.36-26.8q.1-7.62-.54-15.25c-.54-7.58-1.26-15.16-2-22.72-.36-3.87-1-7.73-1.3-11.6-.29-3.62-.35-7.25-.43-10.88-.06-3,0-5.91,0-8.87a2.31,2.31,0,0,0-.08-.78,5.5,5.5,0,0,0-.47-.81c-.23.21-.6.37-.68.63-.37,1.14-.69,2.29-1,3.45-2.3,9.53-4.56,19.08-6.9,28.6-1.74,7.09-3.72,14.12-5.35,21.23a57.75,57.75,0,0,0-1.11,14c.05,3.07.07,6.15.39,9.19.8,7.67,1.58,15.35,3.9,22.76A48.28,48.28,0,0,0,145,328.17c2.35,3.73,4.92,7.33,7.39,11a8.5,8.5,0,0,0,.73.74Zm-17.47,7.83c0-1.35-.12-2.71-.13-4.06-.05-7.17.33-14.29,2.55-21.19a3.09,3.09,0,0,0,0-1.54c-1.08-4.93-2.29-9.84-3.27-14.79-.56-2.82-.8-5.7-1.09-8.57-.38-3.8-.66-7.61-1-11.41a6.35,6.35,0,0,0-.18-1.06h-.46a100.48,100.48,0,0,0-3.53,32.55,86.19,86.19,0,0,0,6.78,30.15Zm26.51-57.24c1.15-7.85,2.11-12.12,2.49-19.14.32-5.94-1.34-14-1.91-20.68-.87-10.13-4.31-21.65-7.12-31.49-.82-2.88-1.35-5.83-2-8.75-.06-.28-.15-.56-.22-.83h-.51c-.12,2-.31,4-.36,6-.15,5.43-.41,10.86-.3,16.28.09,4.22.65,8.43,1,12.65.18,1.94.46,3.87.64,5.81,1,11.11,2.39,20.6,2.61,31.75.15,8-2,35-1.72,36.76.13-.28,7.28-28.1,7.31-28.36Zm-31.93-4.64c3.54-15.44,7.43-30.8,12.25-45.89a138.61,138.61,0,0,0,5-20c.12-.71.16-1.44.23-2.16l-.36-.06c-.9,1.46-1.78,2.93-2.71,4.36-4.09,6.31-6.84,7.88-12.37,12.91-2.08,1.89-7.78,4.54-10,6.32-1.2,1-1.15,2.68-1.15,6.89,0,4.54.19,5.93,1.15,14a165,165,0,0,0,3.25,19.53c.39,2.82,2,8.36,2.49,11.17a1.44,1.44,0,0,0,.47.87c.54-2.69,1.06-5.33,1.66-7.94Z" fill="#cbd5e1" stroke="#231f20" stroke-miterlimit="10" stroke-width="0.75"/></g><g id="hamstrings" data-name="hamstrings"><path d="M349.21,340.86c-.4,0-.93.54-1.15,1-1.16,2.2-3,4.58-4.12,6.81-2.6,5.42-4.1,7.85-6,14.58-1.09,3.8-2.43,7.41-2.82,10.93a59.44,59.44,0,0,0,0,8.44c.36,4.19,3.34,6.41,7.32,7.46,3,.8,5.09-.43,5.32-3.41.28-3.52.19-7.08.53-10.6q.82-8.73,2-17.45c.57-4.14,1.38-8.24,1.38-12.45a8.52,8.52,0,0,0-1.23-4.36c-.3-.43-.85-1-1.24-.95Zm12.1,16.35c0-2,.07-5.31.19-7.29a37.13,37.13,0,0,0,0-4.22c0-.84-.66-1.21-1.57-.83a12.26,12.26,0,0,0-2.92,1.51,11.87,11.87,0,0,0-3.91,6.34A107,107,0,0,0,350,372.11c-.13,3.5-.37,7-.37,10.51a31.21,31.21,0,0,0,1.85,11,12.27,12.27,0,0,0,5.64,6.91,3,3,0,0,0,3.59-.17,20.68,20.68,0,0,0,2.66-3.23,21.11,21.11,0,0,0,2.9-8.32,37.13,37.13,0,0,0-1.58-15.24C362.67,366.9,361.31,364.68,361.31,357.21Zm-7.77,42.71a11.88,11.88,0,0,1-3.28-5.4c-.16-.51-.31-.83-1.06-.76a14.14,14.14,0,0,1-3.56-.09,42.14,42.14,0,0,1-4.15-1.08l1.7,7.34c.56,2.42,1.14,4.84,1.67,7.27s1,4.79,1.49,7.19.83,4.79,1.25,7.18c-.3-.11-.36-.24-.39-.39-1.91-9.33-4.17-18.58-6.94-27.74-.68-2.25-2.86-4.23-4.61-6.2,0,3.63,1.37,7.11,2.4,10.28,2.91,9,5,18.08,7.17,27.22a29.16,29.16,0,0,1,.55,12.12c-.42,2.2-.61,4.45-.87,6.68a6.26,6.26,0,0,0,.09,1.23h.31c.09-.43.18-.85.26-1.28a13.13,13.13,0,0,1,3.08-6.83c2.47-2.69,6.58-3.49,9.47-1.82.47.27.89.61,1.6,1.09-.15-.74-.2-1.21-.34-1.66-.39-1.25-.85-2.47-1.22-3.72a23.89,23.89,0,0,1-.3-10.1c1.21-5.59,1.73-9.49,3-15.07.38-1.68.75-3.36,1.18-5.26-3.35,2.72-5.32,2.63-8.5-.25Zm60.77-23.86c.33,3.52.25,7.07.53,10.6.23,3,2.3,4.21,5.32,3.41,4-1.06,7-3.28,7.32-7.46a62.56,62.56,0,0,0,0-8.44c-.38-3.52-1.73-7.13-2.82-10.93-1.93-6.73-3.43-9.16-6-14.58-1.07-2.24-3-4.62-4.12-6.81-.22-.43-.75-1-1.15-1s-.94.52-1.19.94a8.4,8.4,0,0,0-1.23,4.36c0,4.21.81,8.31,1.38,12.45Q413.44,367.3,414.31,376.06Zm-12.52,24.29a3,3,0,0,0,3.59.17,12.27,12.27,0,0,0,5.64-6.91,31.43,31.43,0,0,0,1.85-11c0-3.5-.24-7-.37-10.51a107.81,107.81,0,0,0-3.19-19.38,11.87,11.87,0,0,0-3.91-6.34,12.45,12.45,0,0,0-2.92-1.51c-.92-.39-1.54,0-1.57.83-.06,1.41-.06,2.82,0,4.22.11,2,.18,5.3.19,7.29,0,7.47-1.32,9.69-3.36,16.34a37,37,0,0,0-1.58,15.24,20.74,20.74,0,0,0,2.9,8.32,18.17,18.17,0,0,0,2.69,3.24Zm2.81,20.06a24.05,24.05,0,0,1-.3,10.1c-.37,1.25-.83,2.48-1.22,3.72-.14.45-.19.93-.34,1.66.71-.48,1.13-.82,1.6-1.09,2.9-1.67,7-.87,9.47,1.82a13.29,13.29,0,0,1,3.08,6.83c.08.43.17.86.26,1.28h.35a6.26,6.26,0,0,0,.09-1.23c-.26-2.23-.45-4.48-.87-6.68a28.82,28.82,0,0,1,.54-12.12c2.13-9.13,4.27-18.26,7.17-27.22,1-3.17,2.42-6.65,2.4-10.28-1.75,2-3.93,4-4.61,6.2-2.77,9.15-5,18.4-6.94,27.74,0,.15-.09.28-.39.39.41-2.4.79-4.8,1.25-7.18s1-4.8,1.49-7.19,1.11-4.85,1.67-7.27l1.7-7.34a42.88,42.88,0,0,1-4.15,1.08,15.15,15.15,0,0,1-3.56.09c-.76-.07-.9.25-1.06.76a11.74,11.74,0,0,1-3.28,5.4c-3.19,2.88-5.15,3-8.55.21.43,1.91.81,3.58,1.18,5.26,1.25,5.57,1.78,9.47,3,15.06Z" fill="#cbd5e1" stroke="#231f20" stroke-miterlimit="10" stroke-width="0.75"/><path d="M96.38,359.94c0-.23-.18-7.34-.38-7.85-.2.58-1.31,4.64-1.38,4.94-.28,1.2-.54,2.4-.81,3.61-1.43,6.39-2.9,12.78-4.29,19.18a91,91,0,0,0-2,10.25c-.55,5.47-.84,11-1,16.47a55.11,55.11,0,0,0,2,16.89c.74,2.58,1.44,5.16,2.16,7.75a.45.45,0,0,1-.32-.29c-.62-1.72-1.31-3.43-1.85-5.18-2.64-8.53-3.42-17.34-3.51-26.19-.1-9.78-.59-19.52-1.29-29.27q-.51-6.83-.55-13.67a89.73,89.73,0,0,1,1.58-15.95c.31-1.79.54-3.59.84-5.54-.31.12-.4.12-.44.17l-1,1.45a62.51,62.51,0,0,0-11.09,29.17c-.87,7.14-1.13,16.61,0,23.74,1.62,10.23,2,15.26,5.33,25.09a53.29,53.29,0,0,0,6.93,13q3.48,4.38,7,8.78c.29.36.64.67,1.18,1.23a5.82,5.82,0,0,0,.21-1.43c-.58-3.46-.86-7-1.9-10.35a30.87,30.87,0,0,1-.57-13.75c2-10.16,5.13-14.36,7.28-24.51a40.69,40.69,0,0,0,.19-15.32C97.74,368,97.2,364.34,96.38,359.94ZM91.57,325.1a17.32,17.32,0,0,0-1.46,3.15c-1.2,3.85-2.41,7.71-3.43,11.62a52,52,0,0,0-1.94,14.53c.12,5.31.22,10.62.46,15.92.2,4.45.58,8.89.9,13.33a7.22,7.22,0,0,0,.33,1.43h.32c.16-.47.31-.95.43-1.43,1.41-6.51,2.77-13,4.23-19.53.73-3.28,1.63-6.52,2.45-9.78a54.5,54.5,0,0,0,1.28-5.45,63.25,63.25,0,0,0-.26-15c-.39-2.89-.93-5.75-1.6-8.58a1.39,1.39,0,0,0-.81-.91C92.24,324.34,91.74,324.78,91.57,325.1Zm49.3,0c-.17-.32-.67-.76-.89-.69a1.41,1.41,0,0,0-.81.91c-.59,2.85-1.3,5.7-1.6,8.58a63.78,63.78,0,0,0-.27,15,51.87,51.87,0,0,0,1.28,5.45c.81,3.26,1.71,6.5,2.45,9.78,1.45,6.5,2.82,13,4.23,19.53.1.48.29.95.43,1.43H146a11.84,11.84,0,0,0,.33-1.43c.32-4.44.7-8.88.9-13.33.24-5.3.33-10.62.46-15.92a52.8,52.8,0,0,0-1.94-14.53c-1-3.9-2.23-7.76-3.43-11.62A18.88,18.88,0,0,0,140.87,325.1Zm-.73,111.39q3.51-4.38,7-8.78a53.11,53.11,0,0,0,6.93-13c3.29-9.83,3.7-14.87,5.32-25.09,1.13-7.13.87-16.6,0-23.74a62.62,62.62,0,0,0-11.09-29.17c-.35-.49-.69-1-1.05-1.45,0-.05-.13-.06-.44-.17.29,2,.53,3.75.84,5.54a89.73,89.73,0,0,1,1.58,15.95q-.06,6.84-.55,13.67c-.7,9.75-1.19,19.49-1.29,29.27-.09,8.85-.87,17.66-3.51,26.19-.54,1.75-1.23,3.46-1.85,5.18a.47.47,0,0,1-.32.29c.72-2.58,1.42-5.17,2.16-7.75a55.73,55.73,0,0,0,2-16.89c-.16-5.5-.45-11-1-16.47a94.05,94.05,0,0,0-2-10.27c-1.39-6.4-2.86-12.79-4.29-19.18-.27-1.2-.53-2.41-.81-3.61-.07-.31-1.18-4.36-1.38-4.94-.2.51-.34,7.62-.38,7.85-.82,4.41-1.36,8.06-2.3,12.44a40.69,40.69,0,0,0,.19,15.32c2.14,10.14,5.23,14.35,7.28,24.51a31.16,31.16,0,0,1-.57,13.75,84.28,84.28,0,0,0-1.9,10.35,5.38,5.38,0,0,0,.21,1.43c.54-.56.89-.87,1.18-1.23Z" fill="#cbd5e1" stroke="#231f20" stroke-miterlimit="10" stroke-width="0.75"/></g><g id="others"><path d="M358.76,66.2a15.12,15.12,0,0,0,1.46,2.68,1.88,1.88,0,0,0,1.44.51h1.58c.16,1.17.3,2.34.45,3.51.26,2.07.41,4.15.65,6.21.18,1.49,1.24,2.21,2.6,2.89.09-.5.16-.86.22-1.22.37-2.24.6-4.51,1.13-6.71.71-3,1.74-5.9,4.32-7.8,4.44-3.28,9.19-3.47,14.15-1.12A9.69,9.69,0,0,1,391.68,71a55.26,55.26,0,0,1,1.8,7.14c.27,1.23.35,2.51.53,4,1.22-.68,2.24-1.34,2.46-2.56.35-2,.47-4,.75-6,.2-1.39.39-2.78.59-4.18h1.5a9.77,9.77,0,0,0,1.54-.63c.23-.13.34-.49.47-.76q1.65-3.48,3.29-7a6,6,0,0,0,.25-.75c0-1-1.61-3-2.54-3l-2.49-1h0a35.81,35.81,0,0,0-.6-10.58,19.13,19.13,0,0,0-20.92-15.13,18.29,18.29,0,0,0-10.58,4.82c-4.67,4.42-6.42,10.07-6.66,16.29a36.28,36.28,0,0,0,.17,5l-2.42.69c-1.46,0-2.9,2.5-2.3,3.85C357.22,62.82,358,64.52,358.76,66.2ZM354,346.7c.52-.4.89-.66,1.23-.94,1-.85,2-1.78,3.06-2.54s1.26-1.14.55-2.21a30.28,30.28,0,0,1-4.31-9.27,6.71,6.71,0,0,0-.41-.8l-3.27,6.15a2.18,2.18,0,0,0,.22,2.25c.82,1.55,1.49,3.18,2.16,4.79.3.76.46,1.58.76,2.57ZM356.75,436c-2.31-.85-6.95.73-7.77,3-.47,1.31-1,2.59-1.6,3.87h0a25.51,25.51,0,0,1-3.63,6.25c-1.66-.13-8.93-.85-11.48-.23a10.08,10.08,0,0,0-6.74,5.74,6.37,6.37,0,0,0,1.38,6.82c3.6,4.1,9.75,2.81,13.42,6.61,1.09,1.13,1.94,2.59,3,3.76,1.71,1.86,10.34,3.53,14.59,1.48,2.7-5.75,2.31-9.49,1.63-15.21.37-2.77.74-5.55,1.06-8.33a25.07,25.07,0,0,0,0-8.64C360,438.82,359.16,436.82,356.75,436Zm47.5-92.71c1.09.76,2,1.69,3.06,2.54.34.29.71.55,1.23.94.29-1,.46-1.81.77-2.57.67-1.62,1.34-3.24,2.16-4.79a2.2,2.2,0,0,0,.22-2.25l-3.3-6.16a5.5,5.5,0,0,0-.41.8,30.28,30.28,0,0,1-4.31,9.27c-.7,1-.5,1.44.55,2.17Zm26,105.51c-2.55-.62-9.82.09-11.48.23a25.2,25.2,0,0,1-3.63-6.25h0c-.57-1.28-1.13-2.56-1.6-3.87-.81-2.26-5.46-3.85-7.77-3s-3.28,2.9-3.82,5.09a23.24,23.24,0,0,0,0,8.64c.37,2.86.68,5.55,1.06,8.33-.68,5.72-1.07,9.46,1.63,15.21,4.25,2,12.88.38,14.59-1.48,1.07-1.17,1.92-2.62,3-3.76,3.66-3.8,9.82-2.51,13.42-6.61a6.39,6.39,0,0,0,1.38-6.82,10,10,0,0,0-6.78-5.69Zm67.24-196c-3.09-1.37-6.16-2.75-8.19-5.55-.67-.92-1.43-1.79-2.16-2.68a19.83,19.83,0,0,0-7.62-6.11,12.59,12.59,0,0,0-1.45-.42l-4.76-.43v.08A5.67,5.67,0,0,0,471,238c-2.14.81-4.2,1.83-6.25,2.83a1.49,1.49,0,0,0-.7,1.13c0,2.76.08,5.52.13,8.28-.39,2.4.82,4.72,1.69,6.94a20.11,20.11,0,0,0,3.16,5.92,3.64,3.64,0,0,0,.25.65c1,1.94,2,3.91,3.14,5.81a35,35,0,0,0,2.77,4.16,1.89,1.89,0,0,0,1.69.42c.77-.26.44-1,.18-1.56-.86-1.82-1.84-3.58-2.59-5.44a5.71,5.71,0,0,0-.44-.85,4.06,4.06,0,0,0,1.15-1.15c.44,1,.91,1.9,1.35,2.85q1.73,3.76,3.42,7.56c.62,1.39,1.44,2.51,3.14,2.6.95,0,1.45-.42,1.43-1.52-.07-.2-.18-.56-.33-.9-1.34-3-2.65-6-4.07-8.89-.6-1.25-1.28-2.45-2-3.65.23-.27.49-.54.78-.82.59,1.13,1.19,2.26,1.75,3.4,1.69,3.39,3.3,6.82,5.06,10.17a5.23,5.23,0,0,0,1.95,1.93,1.83,1.83,0,0,0,1.75-.19,3.51,3.51,0,0,0,.68-1.9c.06-.32-.2-.72-.37-1.06q-3.85-7.6-7.74-15.18a5.64,5.64,0,0,0,.59-.69c2.36,4.14,4.72,8.28,7.12,12.39.26.44,1.14,1,1.47.83.5-.21.76-1,1.12-1.48a36.6,36.6,0,0,0-1.3-3.49c-1.41-2.81-2.92-5.57-4.39-8.35-.77-1.46-1.55-2.91-2.34-4.37,0-.12-.07-.24-.11-.36a2.6,2.6,0,0,1,1.46-1.22,4.15,4.15,0,0,0,2.09,1.74,57.77,57.77,0,0,0,6.2,1.52,3.74,3.74,0,0,0,4-1.48c.81-1,.71-1.35-.4-1.84Zm-200.17-12c-2.05-1-4.12-2-6.25-2.83a5.69,5.69,0,0,0-2.31-.33v-.08l-4.76.43c-.49.12-1,.26-1.45.42a19.83,19.83,0,0,0-7.62,6.11c-.73.89-1.48,1.76-2.16,2.68-2,2.79-5.1,4.18-8.19,5.55-1.11.49-1.21.85-.48,1.82a3.74,3.74,0,0,0,4,1.48,57.77,57.77,0,0,0,6.2-1.52,4.24,4.24,0,0,0,2.09-1.74,2.66,2.66,0,0,1,1.46,1.22,1.65,1.65,0,0,0-.11.36q-1.19,2.18-2.34,4.37c-1.47,2.78-3,5.54-4.39,8.35a34.07,34.07,0,0,0-1.3,3.49c.36.51.62,1.27,1.12,1.48.33.14,1.21-.39,1.47-.83,2.4-4.11,4.76-8.25,7.12-12.39a5.64,5.64,0,0,0,.59.69q-3.9,7.59-7.74,15.18a2.05,2.05,0,0,0-.37,1.06,3.51,3.51,0,0,0,.68,1.9,1.88,1.88,0,0,0,1.75.19,5.23,5.23,0,0,0,1.95-1.93c1.76-3.35,3.38-6.78,5.06-10.17.57-1.14,1.16-2.27,1.75-3.4.29.28.55.55.78.82-.7,1.2-1.38,2.41-2,3.65-1.41,2.94-2.72,5.92-4.07,8.89-.15.34-.26.7-.33.9,0,1.1.47,1.57,1.43,1.52,1.7-.09,2.52-1.21,3.14-2.6q1.7-3.78,3.42-7.56c.44-1,.91-1.9,1.35-2.85a3.82,3.82,0,0,0,1.15,1.15,6.24,6.24,0,0,0-.44.85c-.75,1.86-1.74,3.62-2.59,5.44-.26.55-.58,1.3.18,1.56a1.89,1.89,0,0,0,1.69-.42,35,35,0,0,0,2.77-4.16c1.11-1.9,2.1-3.86,3.14-5.81A4.6,4.6,0,0,0,293,263a20.11,20.11,0,0,0,3.16-5.92c.87-2.22,2.08-4.54,1.69-6.94.05-2.76.14-5.52.13-8.28a1.51,1.51,0,0,0-.7-1.15Z" fill="#cbd5e1" stroke="#231f20" stroke-miterlimit="10" stroke-width="0.75"/><path d="M117.07,143.5c.88-1.21,1.74-2.44,2.58-3.67a14.29,14.29,0,0,0,.73-1.4,3.63,3.63,0,0,0-.29-.86c-1-1.47-1.89-3-3-4.36-.76-1-1.26-1-2,0-1,1.41-2,2.9-2.89,4.4a1.44,1.44,0,0,0,0,1.25c1,1.58,2,3.13,3.13,4.64.47.78,1.16.75,1.67,0Zm-2-29.77a3,3,0,0,0,.31-.4,15.28,15.28,0,0,1,3.35-6.52c.21-.23.17-.67.25-1a2.82,2.82,0,0,0-1-.07,8.65,8.65,0,0,1-5.3.08,4.43,4.43,0,0,0-1.36,0,4.53,4.53,0,0,0,.52,1.27,15.36,15.36,0,0,1,2.84,5.43A9.48,9.48,0,0,0,115.06,113.73Zm-19.94-51a5.13,5.13,0,0,0,1,1.6,1.72,1.72,0,0,0,1.3.31h1.67c.3,3,.59,6,.83,9a3.49,3.49,0,0,0,1.88,3c4,2.11,8.56,5.2,13.32,5.21,5.22,0,10.38-2.46,14.88-4.85a4.75,4.75,0,0,0,2.51-4.27c.14-2.69.44-5.37.7-8l1.67-.2c2.14.72,3.8-5.09,4.43-6.42,1.28-2.71,1-3.81-1.46-5.46L135.5,51c-.31-.21-.08-5.87-.19-6.65a26.24,26.24,0,0,0-1.58-6.48,19.19,19.19,0,0,0-22.91-11.17A20,20,0,0,0,98.93,37.09a28,28,0,0,0-2.12,9.72,41.47,41.47,0,0,0,0,4.46l-2.35,1.28c-1.35.17-2.82,2.43-2.29,3.63,1,2.18,1.94,4.32,3,6.45ZM81.68,424.92c-.1-.22-.48-.49-.66-.45a.9.9,0,0,0-.5.65c-.24,1.88-.53,3.77-.59,5.66L78,442.3l-3,3.11a37.26,37.26,0,0,1-11,10.07,38.23,38.23,0,0,0-6,5.86c-1.74,2.19-2.75,4.35-1,5.15,7.87,3.49,14.25,5.72,21.64-.23,1.88-1.52,3.4-2.95,5.71-3.86s5.62-1.51,6.33-4.35c.08-.33,1.39-5.52,1.39-5.52v-.15a6,6,0,0,0,.28-1.18c.25-2.94.44-5.89.65-8.84a7.24,7.24,0,0,0-2.08-5.63C87.54,433,83.79,429.61,81.68,424.92Zm87,30.56a37.26,37.26,0,0,1-11-10.07l-3-3.11-1.93-11.51c-.07-1.89-.36-3.78-.59-5.66a.92.92,0,0,0-.5-.65,1,1,0,0,0-.66.45c-2.1,4.69-5.86,8.1-9.24,11.78a7.25,7.25,0,0,0-2.13,5.66c.21,2.95.4,5.89.65,8.84a4.83,4.83,0,0,0,.28,1.18v.15s1.3,5.2,1.39,5.52c.71,2.84,4,3.43,6.33,4.35s3.83,2.34,5.71,3.86c7.39,6,13.76,3.72,21.64.23,1.77-.8.77-2.95-1-5.15a39,39,0,0,0-6-5.87Zm-129-219.91c.23-4.4.73-8.79,1.12-13.18.06-.64.11-1.27.17-1.91l1.41-7.24h0c.12-.53.23-1.06.32-1.59a10.82,10.82,0,0,0,0-1.61c-4.15,5.91-8.12,11.58-12.1,17.24l-2.74,2.64a8.58,8.58,0,0,0-4.74,2.15c-2.64,2.48-5.17,5.08-7.74,7.63l-2.41,3h0c-1.73.7-3.44,1.45-5.16,2.19a1.29,1.29,0,0,0-.24,1.18,4.16,4.16,0,0,0,3.4,2.17c2.35-.52,4.75-1,7.15-1.6l2.09.81c-.06.1-.13.19-.2.3s-.19.32-.28.48c-2,3.44-3.93,6.86-5.82,10.34-.9,1.66-2.59,3.24-2.47,5.25a2.31,2.31,0,0,0,1.12,1.66c.21.14,1-.4,1.37-.74a4.53,4.53,0,0,0,.9-1.14c1.84-3,3.68-6.07,5.49-9.12.83-1.4,1.65-2.82,2.43-4.26l.61.73c-2,3.39-3.94,6.78-5.82,10.22-1.33,2.42-2.51,4.92-3.73,7.41a2,2,0,0,0,.87,2.69,2,2,0,0,0,1.07.21,6.48,6.48,0,0,0,1.7-1.39,43.12,43.12,0,0,0,2.2-4q3-5.6,6-11.17l.68,1.19c-1.47,2.63-2.92,5.27-4.3,7.94-1,1.92-1.88,3.9-2.74,5.89-.52,1.19-.05,1.89,1.14,1.89A2.7,2.7,0,0,0,23,270.37c.68-1.33,1.27-2.7,1.94-4,1.21-2.45,2.43-4.9,3.69-7.32l1,1a4.79,4.79,0,0,0-.37.71c-.81,1.84-1.83,3.58-2.7,5.4a1.69,1.69,0,0,0,0,1.19,3.23,3.23,0,0,0,1.45,0c.18,0,.36-.26.5-.43a42.75,42.75,0,0,0,5.41-8.74h0l4.63-6.16c3.07-3.86,3.47-7.18,1.88-11.71A12,12,0,0,1,39.71,235.57Zm184.68,9.37c-1.71-.74-3.43-1.49-5.16-2.19h0l-2.46-3c-2.57-2.56-5.1-5.15-7.74-7.63a8.47,8.47,0,0,0-4.74-2.15l-2.74-2.64c-4-5.67-8-11.33-12.1-17.24a10.82,10.82,0,0,0,0,1.61c.1.53.2,1.06.32,1.59h0l1.41,7.24c.06.64.11,1.27.17,1.91.39,4.39.89,8.78,1.12,13.18a13.24,13.24,0,0,1-.75,4.83c-1.59,4.53-1.2,7.85,1.88,11.71l4.63,6.16h0a42.59,42.59,0,0,0,5.41,8.74c.14.17.32.4.5.43a3,3,0,0,0,1.45-.05c.16-.07.21-.86,0-1.19-.86-1.82-1.89-3.56-2.7-5.4-.11-.24-.24-.48-.37-.71l1-1c1.26,2.42,2.47,4.87,3.69,7.32.66,1.34,1.26,2.71,1.94,4a2.68,2.68,0,0,0,2.59,1.47c1.19,0,1.66-.7,1.14-1.89-.87-2-1.75-4-2.74-5.89-1.38-2.68-2.83-5.31-4.3-7.94l.68-1.19,6,11.17a40.9,40.9,0,0,0,2.2,4,6.32,6.32,0,0,0,1.7,1.39,2,2,0,0,0,2.15-1.84,2.06,2.06,0,0,0-.21-1.06c-1.21-2.48-2.4-5-3.73-7.41-1.88-3.44-3.86-6.82-5.82-10.22l.61-.73c.78,1.44,1.59,2.85,2.43,4.26,1.81,3,3.65,6.09,5.49,9.12a4.32,4.32,0,0,0,.9,1.14c.42.34,1.17.88,1.37.74a2.28,2.28,0,0,0,1.12-1.66c.12-2-1.57-3.59-2.47-5.25-1.89-3.48-3.88-6.9-5.82-10.34-.09-.16-.18-.33-.28-.48s-.13-.21-.2-.3l2.09-.81c2.4.55,4.8,1.08,7.15,1.6a4.18,4.18,0,0,0,3.4-2.17c.12-.34,0-1.13-.26-1.23Z" fill="#cbd5e1" stroke="#231f20" stroke-miterlimit="10" stroke-width="0.75"/></g></svg>